<svg xmlns="http://www.w3.org/2000/svg" width="34" height="27" viewBox="0 0 34 27">
  <path d="M25.225,13.473c0.015-.045.043-0.042,0.078-0.02C25.277,13.459,25.251,13.466,25.225,13.473Zm-9.642,2.811,0.059,0.053Zm-5.194,2.585h0.521q9.321,0,18.641,0a1.072,1.072,0,0,1,1.186.712,0.935,0.935,0,0,1-.973,1.138c-1.616.01-3.232,0-4.848,0q-7.78,0-15.56,0a0.962,0.962,0,0,1-1.134-1.267c0.226-1.074.492-2.142,0.681-3.22a2.973,2.973,0,0,0-.1-1.129C7.864,10.949,6.907,6.8,5.965,2.641a0.444,0.444,0,0,0-.537-0.407C4.05,2.257,2.672,2.245,1.294,2.242A1.145,1.145,0,0,1,.011,1.115,1.131,1.131,0,0,1,1.278.014q2.706-.008,5.412,0a1.19,1.19,0,0,1,1.362,1.03C8.231,1.829,8.415,2.612,8.583,3.4a0.389,0.389,0,0,0,.463.361q10.9-.015,21.8,0a0.422,0.422,0,0,0,.526-0.38,10.136,10.136,0,0,1,.239-0.986,1.213,1.213,0,0,1,1.509-.869,1.1,1.1,0,0,1,.81,1.435Q32.281,7.98,30.622,13a1.224,1.224,0,0,1-1.082.842q-4.657.75-9.312,1.508c-2.931.48-5.86,0.966-8.791,1.442-0.631.1-.631,0.094-0.755,0.691C10.591,17.93,10.494,18.371,10.388,18.869ZM26.9,21.657a2.8,2.8,0,0,1,2.869,2.679,2.877,2.877,0,0,1-5.737,0A2.793,2.793,0,0,1,26.9,21.657ZM8.813,24.328a2.755,2.755,0,0,1,2.856-2.672A2.676,2.676,0,1,1,11.674,27,2.759,2.759,0,0,1,8.813,24.328Z"/>
</svg>
