<?xml version="1.0" encoding="utf-8"?>
<!-- Generator: Adobe Illustrator 15.1.0, SVG Export Plug-In . SVG Version: 6.00 Build 0)  -->
<!DOCTYPE svg PUBLIC "-//W3C//DTD SVG 1.1//EN" "http://www.w3.org/Graphics/SVG/1.1/DTD/svg11.dtd">
<svg version="1.1" id="Layer_1" xmlns="http://www.w3.org/2000/svg" xmlns:xlink="http://www.w3.org/1999/xlink" x="0px" y="0px"
	 width="595.279px" height="402px" viewBox="0 220.445 595.279 402" enable-background="new 0 220.445 595.279 402"
	 xml:space="preserve">
<g>
	<g>
		<path fill="#A1CE35" d="M553.608,392.301l-15.415-61.662c4.215-0.895,7.377-4.634,7.377-9.114v-9.942
			c0-21.585-17.563-39.146-39.146-39.146h-70.217V251.93c0-10.622-8.641-19.263-19.263-19.263H59.031
			c-10.622,0-19.263,8.641-19.263,19.263v169.016c0,5.146,4.173,9.319,9.319,9.319c5.147,0,9.321-4.172,9.321-9.319V251.93
			c0-0.343,0.278-0.621,0.621-0.621h357.913c0.343,0,0.621,0.278,0.621,0.621v169.018c0,5.146,4.173,9.32,9.32,9.32
			c5.146,0,9.32-4.173,9.32-9.32v-10.566h109.951c0.011,0,0.018,0.003,0.024,0.003c0.01,0,0.018-0.002,0.024-0.002
			c13.53,0.01,25.02,8.891,28.966,21.127h-28.983c-5.146,0-9.32,4.173-9.32,9.321v19.884c0,16.104,13.102,29.204,29.204,29.204
			h10.564v41.011h-24.372c-8.006-23.117-29.981-39.769-55.786-39.769c-25.806,0-47.782,16.65-55.787,39.769h-4.487v-70.216
			c0-5.146-4.173-9.321-9.32-9.321s-9.321,4.174-9.321,9.321v70.214H224.18c-8.007-23.117-29.981-39.769-55.786-39.769
			c-25.807,0-47.782,16.65-55.787,39.769H59.031c-0.343,0-0.621-0.277-0.621-0.621V509.8H98.8c5.147,0,9.321-4.173,9.321-9.321
			c0-5.146-4.173-9.319-9.321-9.319H9.321c-5.146,0-9.32,4.173-9.32,9.319c0,5.148,4.173,9.321,9.32,9.321h30.448v20.506
			c0,10.622,8.641,19.264,19.263,19.264h50.348c-0.002,0.207-0.017,0.413-0.017,0.62c0,32.551,26.482,59.03,59.031,59.03
			c32.548,0,59.029-26.479,59.029-59.03c0-0.209-0.015-0.413-0.017-0.62h210.058c-0.002,0.207-0.017,0.413-0.017,0.62
			c0,32.551,26.481,59.03,59.03,59.03s59.03-26.479,59.03-59.03c0-0.209-0.015-0.413-0.018-0.62h30.467
			c5.146,0,9.319-4.173,9.319-9.32v-99.421C595.28,416.281,577.17,395.888,553.608,392.301z M436.207,291.078h70.217
			c11.307,0,20.506,9.199,20.506,20.505v0.621h-90.722L436.207,291.078L436.207,291.078z M436.207,391.74v-60.895h82.822
			l15.225,60.895H436.207z M168.394,590.581c-22.271,0-40.391-18.117-40.391-40.39c0-22.271,18.118-40.39,40.391-40.39
			c22.271,0,40.389,18.117,40.389,40.39C208.782,572.464,190.664,590.581,168.394,590.581z M496.481,590.581
			c-22.271,0-40.39-18.117-40.39-40.39c0-22.271,18.119-40.39,40.39-40.39c22.271,0,40.39,18.117,40.39,40.39
			C536.87,572.464,518.751,590.581,496.481,590.581z M576.639,471.276h-10.563c-5.825,0-10.563-4.739-10.563-10.563v-10.563h21.127
			V471.276L576.639,471.276z"/>
	</g>
</g>
<g>
	<g>
		<path fill="#A1CE35" d="M168.394,530.929c-10.622,0-19.265,8.642-19.265,19.264s8.643,19.264,19.265,19.264
			s19.263-8.642,19.263-19.264S179.016,530.929,168.394,530.929z"/>
	</g>
</g>
<g>
	<g>
		<path fill="#A1CE35" d="M496.481,530.929c-10.622,0-19.263,8.642-19.263,19.264s8.641,19.264,19.263,19.264
			s19.263-8.642,19.263-19.264S507.103,530.929,496.481,530.929z"/>
	</g>
</g>
<g>
	<g>
		<path fill="#A1CE35" d="M387.118,491.161H247.93c-5.147,0-9.321,4.173-9.321,9.321c0,5.147,4.173,9.32,9.321,9.32h139.188
			c5.146,0,9.32-4.173,9.32-9.32C396.438,495.334,392.266,491.161,387.118,491.161z"/>
	</g>
</g>
<g>
	<g>
		<path fill="#A1CE35" d="M148.51,451.393H29.204c-5.146,0-9.32,4.174-9.32,9.321c0,5.148,4.174,9.321,9.32,9.321H148.51
			c5.146,0,9.32-4.173,9.32-9.321C157.83,455.566,153.656,451.393,148.51,451.393z"/>
	</g>
</g>
<g>
	<g>
		<path fill="#A1CE35" d="M324.115,324.875c-3.639-3.639-9.542-3.639-13.181,0.001l-82.889,82.887l-43.12-43.119
			c-3.64-3.641-9.542-3.641-13.181,0c-3.641,3.64-3.641,9.541,0,13.181l49.711,49.711c1.819,1.82,4.205,2.729,6.59,2.729
			s4.771-0.908,6.591-2.729l89.478-89.478C327.755,334.416,327.755,328.515,324.115,324.875z"/>
	</g>
</g>
</svg>
