<?xml version="1.0" encoding="utf-8"?>
<!-- Generator: Adobe Illustrator 15.1.0, SVG Export Plug-In . SVG Version: 6.00 Build 0)  -->
<!DOCTYPE svg PUBLIC "-//W3C//DTD SVG 1.1//EN" "http://www.w3.org/Graphics/SVG/1.1/DTD/svg11.dtd">
<svg version="1.1" id="Layer_1" xmlns="http://www.w3.org/2000/svg" xmlns:xlink="http://www.w3.org/1999/xlink" x="0px" y="0px"
	 width="493.229px" height="496px" viewBox="-66.864 0 493.229 496" enable-background="new -66.864 0 493.229 496"
	 xml:space="preserve">
<path fill="#9BD23D" d="M296,64H128V48h8c4.426,0,8-3.586,8-8V8c0-4.414-3.574-8-8-8H24c-4.426,0-8,3.586-8,8v32
	c0,4.414,3.574,8,8,8h8v21.48C13.114,78.488,0,97.719,0,120v320c0,30.871,25.129,56,56,56h240c30.871,0,56-25.129,56-56V120
	C352,89.121,326.871,64,296,64z M336,120v124.688l-32-32V136c0-13.23-10.77-24-24-24h-76.688l-32-32H296
	C318.055,80,336,97.945,336,120z M288,196.688L219.313,128H280c4.414,0,8,3.594,8,8V196.688z M32,16h96v16H32V16z M48,48h64v16H56
	c-2.719,0-5.375,0.266-8,0.641V48z M296,480H56c-22.055,0-40-17.945-40-40V120c0-22.055,17.945-40,40-40h92.688L336,267.313V440
	C336,462.055,318.055,480,296,480z"/>
<path fill="#9BD23D" d="M141.656,98.344C140.16,96.84,138.129,96,136,96H64c-17.648,0-32,14.352-32,32v304c0,17.648,14.352,32,32,32
	h224c17.648,0,32-14.352,32-32V280c0-2.129-0.84-4.16-2.344-5.656L141.656,98.344z M304,432c0,8.824-7.176,16-16,16H64
	c-8.824,0-16-7.176-16-16V128c0-8.824,7.176-16,16-16h68.688L304,283.313V432z"/>
<path fill="#9BD23D" d="M112,357.984c0,29.535,21.168,54.313,49.23,57.617c2.219,0.254,4.441,0.391,6.641,0.391
	c13.723,0,27.039-4.984,37.32-14.129C217.153,391.238,224,375.984,224,360v-2.016c0-15.727-3.977-31.328-11.504-45.121
	l-37.473-68.695c-2.801-5.145-11.246-5.145-14.047,0l-37.473,68.688C115.977,326.656,112,342.258,112,357.984z M137.551,320.52
	L168,264.711l30.449,55.824c6.246,11.441,9.551,24.395,9.551,37.449V360c0,11.414-4.895,22.313-13.441,29.902
	c-8.648,7.691-19.84,11.168-31.453,9.809c-19.68-2.32-35.105-20.648-35.105-41.727C128,344.93,131.305,331.977,137.551,320.52z"/>
<path fill="#9BD23D" d="M200,360h-16c0,8.824-7.176,16-16,16v16C185.649,392,200,377.648,200,360z"/>
</svg>
