<?xml version="1.0" encoding="utf-8"?>
<!-- Generator: Adobe Illustrator 15.1.0, SVG Export Plug-In . SVG Version: 6.00 Build 0)  -->
<!DOCTYPE svg PUBLIC "-//W3C//DTD SVG 1.1//EN" "http://www.w3.org/Graphics/SVG/1.1/DTD/svg11.dtd">
<svg version="1.1" id="Layer_1" xmlns="http://www.w3.org/2000/svg" xmlns:xlink="http://www.w3.org/1999/xlink" x="0px" y="0px"
	 width="623.622px" height="623.622px" viewBox="-5.741 111.634 623.622 623.622"
	 enable-background="new -5.741 111.634 623.622 623.622" xml:space="preserve">
<g>
	<g>
		<g>
			<path fill="#9BD23D" d="M422.11,614.591c-0.717,0.717-2.151,2.151-3.586,3.586s-1.435,3.586,0,5.021
				c0.718,0.717,2.151,0.717,2.869,0.717c0.717,0,1.435,0,2.151,0c0.718-1.435,2.151-2.869,3.586-4.303
				c1.435-1.435,1.435-3.587,0-5.021C425.696,613.156,423.544,613.156,422.11,614.591z"/>
			<path fill="#9BD23D" d="M452.233,582.316c-1.435-1.435-3.586-0.718-5.021,0.717c-4.304,6.455-8.606,12.192-12.91,17.931
				c-0.717,1.434-0.717,3.586,0.718,5.021c0.717,0.717,1.435,0.717,2.151,0.717s2.151-0.717,2.869-1.435
				c4.303-5.737,8.606-11.475,12.909-17.93C454.384,585.902,453.667,583.033,452.233,582.316z"/>
			<path fill="#9BD23D" d="M447.929,540.001c0.718,0,0.718,0,1.435,0c1.435,0,2.869-0.717,2.869-1.435
				c5.737-14.344,9.323-29.405,11.475-44.467c0.718-2.151-0.717-4.303-2.868-4.303c-2.151-0.717-4.304,0.717-4.304,2.869
				c-2.151,15.061-5.737,29.405-10.758,43.032C445.061,537.133,445.778,539.284,447.929,540.001z"/>
			<path fill="#9BD23D" d="M266.477,326.991c-75.307,0-136.27,61.68-136.27,137.703c0,76.024,60.963,137.704,136.27,137.704
				c75.306,0,136.269-61.68,136.269-137.704C402.745,388.671,341.782,326.991,266.477,326.991z M266.477,587.337
				c-67.417,0-121.925-55.225-121.925-123.359s54.508-123.359,121.925-123.359s121.925,55.225,121.925,123.359
				S333.894,587.337,266.477,587.337z"/>
			<path fill="#9BD23D" d="M266.477,433.138c-17.213,0-31.558,14.344-31.558,31.557s14.345,31.558,31.558,31.558
				s31.557-14.345,31.557-31.558S283.69,433.138,266.477,433.138z M266.477,482.625c-10.041,0-17.931-8.606-17.931-18.647
				s7.89-18.647,17.931-18.647s17.93,8.606,17.93,18.647S276.518,482.625,266.477,482.625z"/>
			<path fill="#9BD23D" d="M321.701,491.231c-5.021-3.586-11.476-2.152-15.062,2.868s-2.868,11.476,2.151,15.062
				c2.152,1.435,4.304,2.151,6.455,2.151c3.586,0,6.455-1.434,8.606-4.303l0.717-0.717
				C327.439,501.272,326.722,494.817,321.701,491.231z"/>
			<path fill="#9BD23D" d="M248.546,416.642c0.718,0,2.152-0.717,3.586,0c5.738-2.151,8.606-7.889,7.173-13.627
				c-2.152-5.737-7.89-8.606-13.627-7.172h-0.718c-5.737,2.151-8.606,7.89-6.454,13.627
				C239.94,413.773,244.243,416.642,248.546,416.642z"/>
			<path fill="#9BD23D" d="M250.698,512.03h-0.718c-5.737-1.435-11.475,1.435-13.627,7.172c-1.435,5.737,1.435,11.476,7.172,13.627
				h0.718c1.435,0.717,2.151,0.717,3.586,0.717c5.021,0,8.606-2.868,9.323-7.889C259.305,519.919,256.436,514.182,250.698,512.03z"
				/>
			<path fill="#9BD23D" d="M324.57,421.662c-3.586-5.021-10.04-5.737-15.061-2.151c-4.304,3.586-5.737,10.041-2.151,15.062
				c1.434,3.586,5.021,5.021,8.605,5.021c2.152,0,4.304-0.718,6.455-2.152c5.021-3.586,6.455-10.04,2.869-15.061L324.57,421.662z"/>
			<path fill="#9BD23D" d="M206.232,452.502c-5.738,0-10.759,5.021-10.759,10.758v1.435c0,5.738,5.021,10.759,10.759,10.759
				c5.737,0,10.758-5.021,10.758-11.476v-0.718C216.99,457.522,211.969,452.502,206.232,452.502z"/>
			<path fill="#9BD23D" d="M266.477,362.852c-55.225,0-99.691,45.184-99.691,101.843c0,55.942,44.467,101.844,99.691,101.844
				s99.691-45.185,99.691-101.844C366.885,408.035,321.701,362.852,266.477,362.852z M266.477,559.365
				c-50.922,0-92.52-42.314-92.52-94.671c0-52.355,41.598-94.671,92.52-94.671c50.921,0,92.52,42.315,92.52,94.671
				C358.996,517.051,317.398,559.365,266.477,559.365z"/>
			<path fill="#9BD23D" d="M252.132,649.017c-3.586-1.435-7.889-0.718-10.04,2.868v0.718c-1.435,3.586-0.718,7.889,2.868,10.041
				c1.435,0.717,2.152,0.717,3.586,0.717c2.869,0,5.021-1.435,6.455-3.586v-0.717C256.436,655.471,255.719,651.168,252.132,649.017z
				"/>
			<path fill="#9BD23D" d="M241.374,668.381c-3.586-1.435-7.889-0.717-10.041,2.869v0.717c-1.434,3.586-0.717,7.89,2.869,10.041
				c1.435,0.717,2.151,0.717,3.586,0.717c2.151,0,5.021-1.434,6.455-3.586v-0.717C245.678,674.836,244.96,670.532,241.374,668.381z"
				/>
			<path fill="#9BD23D" d="M263.608,630.369c-3.586-1.435-7.889-0.718-10.041,2.869v0.717c-2.151,3.586-0.717,7.172,2.869,9.323
				c1.435,0.718,2.151,0.718,3.586,0.718c2.151,0,5.021-1.435,6.455-3.586C267.911,636.824,267.194,632.521,263.608,630.369z"/>
			<path fill="#9BD23D" d="M95.065,586.619h-0.718c-3.586,0.718-5.737,5.021-5.02,8.606c1.434,2.869,4.303,5.021,7.172,5.021
				c0.717,0,1.435,0,1.435,0h0.717c3.586-0.717,5.737-5.021,5.021-8.606S98.651,585.902,95.065,586.619z"/>
			<path fill="#9BD23D" d="M117.298,580.882h-0.718c-4.303,0.717-5.737,5.021-5.02,8.606c0.717,2.869,4.303,5.021,7.172,5.021
				c0.717,0,1.435,0,2.151,0c3.586-0.717,5.737-5.021,5.021-8.606C125.187,582.316,120.884,579.447,117.298,580.882z"/>
			<path fill="#9BD23D" d="M138.097,575.145h-0.717c-3.587,0.717-5.738,5.021-5.021,8.606c1.434,2.868,4.303,5.021,7.172,5.021
				c0.717,0,1.435,0,1.435,0h0.717c3.586-0.718,5.737-5.021,5.021-8.606C145.987,576.578,141.683,574.427,138.097,575.145z"/>
			<path fill="#9BD23D" d="M94.347,464.694c2.152,0,5.021-1.435,6.455-3.586c1.435-3.586,0.718-7.889-2.868-10.041h-0.718
				c-3.586-2.151-7.172-0.717-9.323,2.869c-2.152,3.586-0.718,7.89,2.868,10.041C92.196,464.694,92.913,464.694,94.347,464.694z"/>
			<path fill="#9BD23D" d="M59.204,428.834h-0.717c-3.586-1.434-7.89-0.717-10.041,2.869c-1.435,3.586-0.718,7.89,2.868,10.041
				h0.718c1.435,0.717,2.151,0.717,3.586,0.717c2.151,0,5.021-0.717,6.455-3.586C63.508,435.289,62.79,430.986,59.204,428.834z"/>
			<path fill="#9BD23D" d="M78.569,440.31h-0.717c-3.586-2.151-7.172-0.717-9.324,2.869c-2.151,3.586-0.717,7.889,2.869,10.041
				c1.435,0.717,2.151,0.717,3.586,0.717c2.151,0,5.021-1.435,6.455-3.586C82.872,446.765,82.155,442.461,78.569,440.31z"/>
			<path fill="#9BD23D" d="M388.402,607.418c3.586-0.717,5.737-5.02,5.021-8.606v-0.717c-0.718-3.586-5.021-5.737-8.606-5.021
				c-3.587,0.717-5.738,5.021-5.021,8.606v0.718c1.434,2.868,4.303,5.02,7.172,5.02
				C386.967,607.418,387.684,607.418,388.402,607.418z"/>
			<path fill="#9BD23D" d="M399.159,619.611c-0.717-3.587-5.021-5.738-8.606-5.021c-3.586,0.717-5.737,5.021-5.021,8.606v0.717
				c1.435,2.869,4.303,5.021,7.172,5.021c0.718,0,0.718,0,1.435,0c3.586-0.717,5.737-5.021,5.021-8.606V619.611L399.159,619.611z"/>
			<path fill="#9BD23D" d="M381.947,585.902c3.586-0.718,5.737-5.021,5.021-8.606v-0.718c-0.718-3.586-5.021-5.737-8.606-5.02
				c-3.586,0.717-5.738,5.02-5.021,8.606v0.717c1.435,2.869,4.303,5.021,7.172,5.021
				C381.229,585.902,381.947,585.902,381.947,585.902z"/>
			<path fill="#9BD23D" d="M140.966,309.061c-3.586,0.717-5.738,5.021-5.021,8.606v0.717c1.435,2.869,4.303,5.021,7.172,5.021
				c0.717,0,1.435,0,1.435,0c3.586-0.717,5.737-5.021,5.021-8.606v-0.717C148.855,310.496,144.552,308.344,140.966,309.061z"/>
			<path fill="#9BD23D" d="M130.207,296.869c1.435,2.869,4.304,5.021,7.173,5.021c0.717,0,1.434,0,1.434,0
				c3.587-0.717,5.738-5.021,5.021-8.606v-0.717c-0.717-3.586-5.021-5.738-8.606-5.021s-5.737,5.021-5.021,8.606V296.869z"/>
			<path fill="#9BD23D" d="M146.703,330.577c-3.586,0.717-5.737,5.021-5.021,8.606v0.717c1.435,2.869,4.304,5.021,7.172,5.021
				c0.718,0,1.435,0,1.435,0c3.586-0.717,5.737-5.021,5.021-8.606v-0.717C154.593,332.012,150.289,329.86,146.703,330.577z"/>
			<path fill="#9BD23D" d="M508.174,429.552c-0.717-1.435-2.151-2.869-4.303-2.151c-1.435,0.717-2.869,2.151-2.151,4.303
				c0.717,2.151,0.717,3.586,1.435,5.021c0.717,2.151,2.151,2.869,3.586,2.869c0.717,0,0.717,0,0-0.718
				c2.151-0.717,3.586-2.151,2.868-4.303C508.892,433.138,508.892,430.986,508.174,429.552z"/>
			<path fill="#9BD23D" d="M502.437,423.097c1.435-0.717,2.869-2.151,2.151-4.304c-1.434-4.303-2.868-7.889-4.303-12.192
				c-0.717-2.151-2.151-2.868-4.304-2.151c-2.151,0.718-2.868,2.151-2.151,4.304c1.435,3.586,2.869,7.172,4.304,11.475
				c0.717,1.435,2.151,2.152,3.586,2.152C502.437,422.38,502.437,422.38,502.437,423.097z"/>
			<path fill="#9BD23D" d="M300.185,215.107c-4.303-1.435-9.323-2.869-14.344-4.304c-2.151,0-4.303,0.717-4.303,2.869
				c0,2.151,0.717,3.586,2.868,4.303c5.021,1.434,10.041,2.869,14.345,4.303h0.717c1.435,0,2.869-0.717,2.869-2.869
				C303.054,217.976,302.337,215.824,300.185,215.107z"/>
			<path fill="#9BD23D" d="M590.654,463.978h-17.135l-1.513-20.799c-0.988-18.753-7.068-36.826-17.073-52.584l-3.008-19.854
				c-2.868-20.082-11.475-38.729-24.385-54.508l-29.405-35.143c-0.12-0.16-0.252-0.311-0.39-0.458l3.259-5.997
				c4.303-8.606,2.868-19.365-3.586-25.819l-25.103-25.102c-7.172-6.455-17.213-7.89-25.819-3.586l-5.396,2.931l-34.768-28.75
				c-15.779-12.91-34.427-21.516-54.508-25.102l-23.668-3.586c-0.225-0.038-0.444-0.059-0.664-0.077
				c-14.847-8.494-31.543-13.62-48.823-14.984l-19.364-1.408v-18.674c0-4.303-2.869-7.172-7.172-7.172
				c-4.304,0-7.172,2.869-7.172,7.172v17.63l-45.185-3.286c-0.717,0-1.434,0-1.434,0c-5.021,0-9.324,2.869-12.193,7.172
				c-2.151,4.303-2.151,10.041,0,14.344l26.988,48.856C97.954,240.348,15.455,343.907,15.455,463.978
				c0,140.572,112.601,254.607,251.021,254.607c122.143,0,224.348-86.577,246.118-206.593l42.915,23.706
				c2.151,1.434,5.021,2.151,7.172,2.151c4.304,0,7.89-2.151,11.476-5.021c2.869-2.869,3.586-6.455,3.586-10.758l-3.182-43.75h16.81
				c3.586,0,6.455-2.868,6.455-7.172C597.825,466.846,594.956,463.978,590.654,463.978z M557.661,445.33l1.356,18.647H542.58
				l13.521-29.428C556.797,438.114,557.332,441.712,557.661,445.33z M516.781,325.557c10.689,12.694,17.641,27.879,20.861,43.813
				l-8.669-8.669c-2.869-3.586-7.89-5.021-12.192-4.303l-26.537,4.303l-1.435-2.151c-5.312-10.079-11.17-19.82-17.538-29.181
				l19.17-35.289L516.781,325.557z M452.949,232.32c2.869-1.435,6.455-0.717,8.606,1.434l25.103,25.102
				c2.151,2.152,2.869,5.738,1.435,8.606l-26.403,48.608c-16.294-21.345-35.417-40.413-56.954-56.63L452.949,232.32z
				 M396.29,205.066l30.897,25.549l-35.719,19.402c-8.803-5.886-17.955-11.325-27.451-16.265l-2.151-0.717l3.586-27.254
				c0.717-4.303-1.435-9.324-4.304-12.192l-9.561-9.559C367.846,187.171,383.36,194.178,396.29,205.066z M277.952,164.903
				c2.926,0.266,5.831,0.654,8.707,1.161L259.305,178.1v-14.54L277.952,164.903z M245.112,183.728
				c-4.008,0.426-7.965-1.301-10.192-5.198l-9.836-17.437l19.877,1.433v19.59C244.96,182.68,245.015,183.217,245.112,183.728z
				 M266.477,704.241c-129.814,0-235.961-107.581-236.678-240.264c0-115.177,80.351-213.425,190.738-235.386l7.21,13.052
				c2.151,3.586,4.304,6.455,7.172,9.324l27.254,27.254c10.041,10.758,22.233,18.647,35.86,24.385l21.516,9.323
				c40.881,17.213,73.155,49.487,90.368,90.368l9.324,21.516c5.737,13.627,14.344,25.819,24.385,35.86l27.254,27.254
				c2.726,2.727,5.47,4.802,8.811,6.848c-0.119,0.323-0.204,0.666-0.204,1.042c-2.869,22.95-9.324,45.901-20.082,66.7
				c-0.717,2.151,0,4.303,1.435,5.021c0,0.717,0.717,0.717,1.435,0.717c0.717,0,2.151-0.717,3.586-2.151
				c10.563-21.127,17.658-43.639,20.628-67.532l13.298,7.346C479.975,620.313,382.401,704.241,266.477,704.241z M488.093,482.625
				c-2.152-1.435-4.304-2.869-6.455-5.021l-27.254-27.254c-9.323-9.324-16.495-20.082-21.516-31.558l-9.324-21.516
				c-19.364-44.467-53.79-79.61-98.257-98.257l-21.516-9.324c-12.193-5.02-22.233-12.192-31.558-21.516l-27.254-27.253
				c-2.151-2.152-3.586-4.303-5.021-6.455l-41.598-75.307l17.903,1.29l12.22,21.661c3.586,5.738,9.323,9.324,15.778,9.324
				c2.869,0,5.021,0,7.889-1.435l46.498-21.079c15.79,4.767,30.353,13.299,42.436,25.382l10.041,10.041l-3.937,29.524
				c-7.124-3.447-14.343-6.615-21.883-9.443c-1.435-0.717-3.586,0-4.304,2.152c-0.717,1.435,0,3.586,2.152,4.303
				c8.487,3.183,16.578,6.369,24.281,10.132c0.642,1.136,1.645,2.114,2.972,2.778l6.455,3.586
				c50.922,27.254,91.803,68.135,119.057,119.056l1.159,2.318c0.002,0.455,0.086,0.887,0.275,1.268
				c4.303,7.889,7.889,15.778,11.475,24.385c0.718,1.434,2.151,2.151,3.586,2.151c0.264,0,0.525,0,0.718,0
				c2.151-1.435,2.868-2.869,2.151-5.021c-2.063-4.953-4.145-9.888-6.344-14.704l29.294-4.66l10.041,10.041
				c11.74,11.251,20.137,25.507,24.977,40.944l-19.982,43.49c-0.537,0.719-0.928,1.562-1.154,2.513l-0.254,0.552
				c-4.303,8.606-0.717,18.647,7.172,22.951l23.012,12.655l1.374,18.901L488.093,482.625z M561.46,497.567l-18.859-10.64
				c-3.438-1.964-5.191-5.273-5.268-8.775c0.534,0.104,1.09,0.169,1.681,0.169h21.047L561.46,497.567z"/>
		</g>
	</g>
</g>
</svg>
