<?xml version="1.0" encoding="utf-8"?>
<!-- Generator: Adobe Illustrator 15.1.0, SVG Export Plug-In . SVG Version: 6.00 Build 0)  -->
<!DOCTYPE svg PUBLIC "-//W3C//DTD SVG 1.1//EN" "http://www.w3.org/Graphics/SVG/1.1/DTD/svg11.dtd">
<svg version="1.1" id="Layer_1" xmlns="http://www.w3.org/2000/svg" xmlns:xlink="http://www.w3.org/1999/xlink" x="0px" y="0px"
	 width="50px" height="50px" viewBox="0 0 50 50" enable-background="new 0 0 50 50" xml:space="preserve">
<g>
	<g>
		<path fill="#206F9B" d="M47.98,22.98H2.02C0.904,22.98,0,23.884,0,25c0,1.115,0.904,2.02,2.02,2.02H47.98
			c1.115,0,2.02-0.904,2.02-2.02S49.096,22.98,47.98,22.98z"/>
	</g>
</g>
<g>
	<g>
		<path fill="#206F9B" d="M47.98,7.66H2.02C0.904,7.66,0,8.564,0,9.68c0,1.116,0.904,2.02,2.02,2.02H47.98
			c1.115,0,2.02-0.904,2.02-2.02C50,8.564,49.096,7.66,47.98,7.66z"/>
	</g>
</g>
<g>
	<g>
		<path fill="#206F9B" d="M47.98,38.301H2.02c-1.115,0-2.02,0.904-2.02,2.02s0.904,2.02,2.02,2.02H47.98
			c1.115,0,2.02-0.904,2.02-2.02S49.096,38.301,47.98,38.301z"/>
	</g>
</g>
</svg>
