<?xml version="1.0" encoding="utf-8"?>
<!-- Generator: Adobe Illustrator 15.1.0, SVG Export Plug-In . SVG Version: 6.00 Build 0)  -->
<!DOCTYPE svg PUBLIC "-//W3C//DTD SVG 1.1//EN" "http://www.w3.org/Graphics/SVG/1.1/DTD/svg11.dtd">
<svg version="1.1" id="Layer_1" xmlns="http://www.w3.org/2000/svg" xmlns:xlink="http://www.w3.org/1999/xlink" x="0px" y="0px"
	 width="512px" height="512px" viewBox="0 0 512 512" enable-background="new 0 0 512 512" xml:space="preserve">
<path fill="#9BD23D" d="M255.998,0C182.67,0.008,115.463,40.895,81.74,106.012S53.408,249.609,95.717,309.504
	c-21.387,6.691-35.957,26.488-35.984,48.895v102.402c0.027,28.266,22.934,51.172,51.199,51.199h290.133
	c28.266-0.027,51.172-22.934,51.203-51.199V358.398c-0.031-22.406-14.602-42.203-35.988-48.895
	c42.309-59.895,47.699-138.375,13.98-203.492C396.537,40.895,329.33,0.008,255.998,0z M255.998,17.066
	c68.664-0.027,131.301,39.199,161.258,100.984c29.953,61.785,21.957,135.258-20.594,189.148h-61.441
	c48.352-34.465,68.887-96.227,50.793-152.781s-70.664-94.93-130.039-94.93c-59.379,0-111.949,38.375-130.043,94.93
	c-18.09,56.555,2.441,118.316,50.793,152.781h-61.441c-42.555-53.898-50.547-127.383-20.578-189.172
	C124.67,56.238,187.326,17.02,255.998,17.066z M211.838,307.199c-53.25-21.184-83.957-77.199-73.172-133.484
	c10.785-56.289,60.023-96.988,117.332-96.988c57.313,0,106.547,40.699,117.332,96.988c10.785,56.285-19.918,112.301-73.172,133.484
	H211.838z M435.198,418.133H76.799v-17.066h358.398V418.133z M401.065,494.934H110.932c-15.516-0.059-29.043-10.574-32.922-25.602
	h246.258c4.711,0,8.531-3.82,8.531-8.531c0-4.715-3.82-8.535-8.531-8.535H76.799v-17.066h358.398v17.066h-76.797
	c-4.715,0-8.535,3.82-8.535,8.535c0,4.711,3.82,8.531,8.535,8.531h75.586C430.108,484.359,416.584,494.875,401.065,494.934z
	 M433.987,349.867H179.198c-4.711,0-8.531,3.82-8.531,8.531c0,4.715,3.82,8.535,8.531,8.535h256V384H76.799v-17.066h68.266
	c4.715,0,8.535-3.82,8.535-8.535c0-4.711-3.82-8.531-8.535-8.531H78.01c3.879-15.023,17.406-25.543,32.922-25.602h290.133
	C416.584,324.324,430.108,334.844,433.987,349.867z"/>
<path fill="#9BD23D" d="M334.362,262.059c7.5-8.953,13.41-19.125,17.484-30.07v-0.051c0.129-0.223,0.129-0.473,0.238-0.703
	c8.383-22.57,8.383-47.398,0-69.973c-0.109-0.23-0.109-0.477-0.238-0.699c-12.785-34.16-42.746-58.961-78.695-65.133h-0.086
	c-11.285-2.051-22.848-2.051-34.133,0h-0.086c-35.945,6.172-65.91,30.973-78.691,65.133c-0.129,0.223-0.129,0.469-0.242,0.699
	c-8.379,22.574-8.379,47.402,0,69.973c0.113,0.23,0.113,0.48,0.242,0.703v0.051c4.07,10.945,9.984,21.117,17.484,30.07
	c0.422,0.602,0.918,1.145,1.477,1.621c15.477,17.676,36.57,29.484,59.73,33.434h0.086c11.285,2.051,22.848,2.051,34.133,0h0.086
	c23.16-3.949,44.254-15.758,59.734-33.434C333.444,263.203,333.94,262.66,334.362,262.059z M178.28,231.34l43.586-25.219
	l1.945,1.121c1.438,4.18,3.672,8.039,6.59,11.363v2.203l-43.574,25.223c-3.332-4.609-6.199-9.543-8.547-14.727V231.34z
	 M170.666,196.266c0.016-6.23,0.715-12.445,2.082-18.523l32.051,18.523l-32.086,18.527
	C171.358,208.711,170.67,202.5,170.666,196.266z M186.826,146.5l43.574,25.227v2.199c-2.906,3.328-5.137,7.188-6.563,11.367
	l-1.973,1.117l-43.613-25.18C180.612,156.043,183.483,151.109,186.826,146.5z M333.721,161.23l-43.59,25.18l-1.945-1.117
	c-1.434-4.18-3.672-8.043-6.586-11.367v-2.199l43.57-25.227C328.506,151.113,331.369,156.047,333.721,161.23z M341.334,196.266
	c-0.02,6.234-0.715,12.445-2.082,18.527l-32.055-18.527l32.086-18.523C340.639,183.824,341.326,190.035,341.334,196.266z
	 M238.932,196.266c0-9.426,7.641-17.066,17.066-17.066s17.066,7.641,17.066,17.066s-7.641,17.066-17.066,17.066
	S238.932,205.691,238.932,196.266z M281.6,151.996v-37.129c11.898,3.789,22.82,10.145,31.992,18.621L281.6,151.996z
	 M198.408,133.488c9.172-8.477,20.09-14.832,31.992-18.621v37.129L198.408,133.488z M230.401,240.539v37.129
	c-11.902-3.789-22.82-10.145-31.992-18.621L230.401,240.539z M281.6,220.809v-2.203c2.906-3.324,5.133-7.184,6.563-11.363
	l1.969-1.121l43.617,25.184c-2.348,5.184-5.207,10.117-8.535,14.727L281.6,220.809z M313.592,259.047
	c-9.172,8.477-20.094,14.832-31.992,18.621v-37.129L313.592,259.047z M264.533,111.367v50.512l-1.656,0.953
	c-4.539-0.934-9.223-0.934-13.766,0l-1.645-0.953v-50.512C253.139,110.789,258.858,110.789,264.533,111.367z M247.467,281.184
	v-50.527l1.656-0.957c4.539,0.934,9.223,0.934,13.762,0l1.648,0.957v50.508c-5.676,0.582-11.395,0.582-17.066,0V281.184z"/>
<path fill="#9BD23D" d="M127.998,110.934c2.688,0,5.215-1.266,6.828-3.414c13.82-17.25,31.074-31.441,50.672-41.668
	c2.727-1.43,4.473-4.219,4.566-7.297c0.098-3.078-1.477-5.969-4.109-7.563c-2.637-1.594-5.926-1.645-8.609-0.133
	c-21.75,11.395-40.887,27.203-56.172,46.422c-1.941,2.586-2.254,6.043-0.809,8.934S124.768,110.934,127.998,110.934z"/>
<path fill="#9BD23D" d="M221.865,42.668c0,4.711-3.82,8.531-8.531,8.531c-4.715,0-8.535-3.82-8.535-8.531
	c0-4.715,3.82-8.535,8.535-8.535C218.045,34.133,221.865,37.953,221.865,42.668z"/>
</svg>
