<?xml version="1.0" encoding="utf-8"?>
<!-- Generator: Adobe Illustrator 15.1.0, SVG Export Plug-In . SVG Version: 6.00 Build 0)  -->
<!DOCTYPE svg PUBLIC "-//W3C//DTD SVG 1.1//EN" "http://www.w3.org/Graphics/SVG/1.1/DTD/svg11.dtd">
<svg version="1.1" id="Layer_1" xmlns="http://www.w3.org/2000/svg" xmlns:xlink="http://www.w3.org/1999/xlink" x="0px" y="0px"
	 width="512px" height="512px" viewBox="0 0 512 512" enable-background="new 0 0 512 512" xml:space="preserve">
<path fill="#9BD23D" d="M482,90h-36V60c0-16.543-13.457-30-30-30h-40c-16.543,0-30,13.457-30,30v30H166V60c0-16.543-13.457-30-30-30
	H96c-16.543,0-30,13.457-30,30v30H30c-16.543,0-30,13.457-30,30v20c0,16.543,13.457,30,30,30v220c-16.543,0-30,13.457-30,30v20
	c0,16.543,13.457,30,30,30h181c5.523,0,10-4.477,10-10s-4.477-10-10-10H30c-5.516,0-10-4.484-10-10v-20c0-5.516,4.484-10,10-10h452
	c5.516,0,10,4.484,10,10v20c0,5.516-4.484,10-10,10H301c-5.523,0-10,4.477-10,10s4.477,10,10,10h181c16.543,0,30-13.457,30-30v-20
	c0-16.543-13.457-30-30-30V170c16.543,0,30-13.457,30-30v-20C512,103.457,498.543,90,482,90z M366,60c0-5.516,4.484-10,10-10h40
	c5.516,0,10,4.484,10,10v30h-60V60z M86,60c0-5.516,4.484-10,10-10h40c5.516,0,10,4.484,10,10v30H86V60z M462,390H50V170h412V390z
	 M492,140c0,5.516-4.484,10-10,10H30c-5.516,0-10-4.484-10-10v-20c0-5.516,4.484-10,10-10h452c5.516,0,10,4.484,10,10V140z"/>
<path fill="#9BD23D" d="M106,290h20v20c0,5.523,4.477,10,10,10s10-4.477,10-10v-20h20c5.523,0,10-4.477,10-10s-4.477-10-10-10h-20
	v-20c0-5.523-4.477-10-10-10s-10,4.477-10,10v20h-20c-5.523,0-10,4.477-10,10S100.477,290,106,290z"/>
<path fill="#9BD23D" d="M346,290h60c5.523,0,10-4.477,10-10s-4.477-10-10-10h-60c-5.523,0-10,4.477-10,10S340.477,290,346,290z"/>
<path fill="#9BD23D" d="M201.528,278.945l33.555,16.773l-8.98,62.867c-0.648,4.52,1.852,8.902,6.074,10.652
	c4.188,1.738,9.066,0.438,11.824-3.238l60-80c1.781-2.371,2.414-5.414,1.734-8.297c-0.684-2.887-2.609-5.32-5.262-6.648L266,253.82
	V200c0-4.348-2.809-8.195-6.949-9.523c-4.137-1.328-8.66,0.176-11.188,3.711l-50,70c-1.699,2.379-2.273,5.383-1.566,8.223
	C197,275.246,198.91,277.637,201.528,278.945z M246,231.203V260c0,3.789,2.141,7.25,5.527,8.945l29.281,14.641l-29.391,39.188
	l4.48-31.359c0.609-4.262-1.578-8.434-5.43-10.359l-29.531-14.766L246,231.203z"/>
<path fill="#9BD23D" d="M266,460c0,5.523-4.477,10-10,10s-10-4.477-10-10s4.477-10,10-10S266,454.477,266,460z"/>
</svg>
