<?xml version="1.0" encoding="utf-8"?>
<!-- Generator: Adobe Illustrator 15.1.0, SVG Export Plug-In . SVG Version: 6.00 Build 0)  -->
<!DOCTYPE svg PUBLIC "-//W3C//DTD SVG 1.1//EN" "http://www.w3.org/Graphics/SVG/1.1/DTD/svg11.dtd">
<svg version="1.1" id="Capa_1" xmlns="http://www.w3.org/2000/svg" xmlns:xlink="http://www.w3.org/1999/xlink" x="0px" y="0px"
	 width="595.279px" height="595.275px" viewBox="0 127.808 595.279 595.275" enable-background="new 0 127.808 595.279 595.275"
	 xml:space="preserve">
<g>
	<path fill="#9BD23D" d="M477.85,432.187c-2.335,0-4.732,0.333-7.125,0.995l-13.524,3.725l-17.307-42.16
		c-7.965-19.4-31.507-35.183-52.479-35.183H207.581c-20.974,0-44.516,15.783-52.478,35.185l-17.279,42.09l-13.27-3.656
		c-2.393-0.659-4.79-0.995-7.125-0.995c-12.793,0-22.08,9.775-22.08,23.241v0.495c0,13.895,9.996,25.483,23.173,27.989
		c-7.194,18.148-12.978,47.803-12.978,66.896v87.557c0,15.721,12.788,28.509,28.509,28.509h16.427
		c15.719,0,28.51-12.788,28.51-28.509v-18.281h237.017v18.281c0,15.721,12.788,28.509,28.51,28.509h16.426
		c15.722,0,28.51-12.788,28.51-28.509v-87.557c0-19.079-5.777-48.706-12.964-66.854c13.306-2.401,23.441-14.042,23.441-28.03v-0.495
		C499.93,441.962,490.643,432.187,477.85,432.187z M156.155,466.106l27.493-66.968c4.762-11.604,18.923-21.1,31.468-21.1h164.767
		c12.544,0,26.705,9.495,31.47,21.1l27.492,66.968c4.765,11.604-1.601,21.1-14.145,21.1H170.303
		C157.758,487.206,151.393,477.711,156.155,466.106z M225.066,566.654c0,6.272-5.131,11.403-11.403,11.403h-54.764
		c-6.272,0-11.403-5.131-11.403-11.403v-23.303c0-6.272,5.131-11.404,11.403-11.404h54.764c6.272,0,11.403,5.132,11.403,11.404
		V566.654z M446.932,566.654c0,6.272-5.132,11.403-11.403,11.403h-54.764c-6.272,0-11.404-5.131-11.404-11.403v-23.303
		c0-6.272,5.132-11.404,11.404-11.404h54.764c6.271,0,11.403,5.132,11.403,11.404V566.654z"/>
	<path fill="#9BD23D" d="M555.366,175.015H39.913C17.906,175.015,0,192.921,0,214.928v432.114c0,9.447,7.658,17.105,17.105,17.105
		s17.105-7.658,17.105-17.105V214.928c0-3.09,2.611-5.702,5.702-5.702h515.453c3.091,0,5.702,2.611,5.702,5.702v432.114
		c0,9.447,7.659,17.105,17.105,17.105c9.447,0,17.105-7.658,17.105-17.105V214.928C595.28,192.918,577.376,175.015,555.366,175.015z
		"/>
	<path fill="#9BD23D" d="M71.844,220.903c-6.297,0-11.403,5.107-11.403,11.404v7.982c0,6.297,5.106,11.404,11.403,11.404
		c6.298,0,11.404-5.106,11.404-11.404v-7.982C83.248,226.01,78.142,220.903,71.844,220.903z"/>
	<path fill="#9BD23D" d="M71.844,313.918c-6.297,0-11.403,5.106-11.403,11.404v14.517c0,6.297,5.106,11.404,11.403,11.404
		c6.298,0,11.404-5.107,11.404-11.404v-14.517C83.248,319.024,78.142,313.918,71.844,313.918z"/>
	<path fill="#9BD23D" d="M71.844,264.143c-6.297,0-11.403,5.106-11.403,11.403v14.518c0,6.297,5.106,11.404,11.403,11.404
		c6.298,0,11.404-5.107,11.404-11.404v-14.518C83.248,269.249,78.142,264.143,71.844,264.143z"/>
	<path fill="#9BD23D" d="M71.844,363.693c-6.297,0-11.403,5.106-11.403,11.404v14.517c0,6.297,5.106,11.403,11.403,11.403
		c6.298,0,11.404-5.106,11.404-11.403v-14.517C83.248,368.8,78.142,363.693,71.844,363.693z"/>
	<path fill="#9BD23D" d="M71.844,413.469c-6.297,0-11.403,5.106-11.403,11.404v7.982c0,6.297,5.106,11.403,11.403,11.403
		c6.298,0,11.404-5.106,11.404-11.403v-7.982C83.248,418.575,78.142,413.469,71.844,413.469z"/>
	<path fill="#9BD23D" d="M162.162,251.694c6.298,0,11.404-5.106,11.404-11.404v-7.982c0-6.297-5.106-11.404-11.404-11.404
		c-6.297,0-11.403,5.107-11.403,11.404v7.982C150.759,246.587,155.865,251.694,162.162,251.694z"/>
	<path fill="#9BD23D" d="M150.759,301.618c0,6.297,5.106,11.404,11.403,11.404c6.298,0,11.404-5.106,11.404-11.404v-17.888
		c0-6.297-5.106-11.404-11.404-11.404c-6.297,0-11.403,5.107-11.403,11.404V301.618z"/>
	<path fill="#9BD23D" d="M150.759,353.044c0,6.297,5.106,11.404,11.403,11.404c6.298,0,11.404-5.106,11.404-11.404v-7.983
		c0-6.297-5.106-11.404-11.404-11.404c-6.297,0-11.403,5.107-11.403,11.404V353.044z"/>
	<path fill="#9BD23D" d="M433.117,251.694c6.297,0,11.404-5.106,11.404-11.404v-7.982c0-6.297-5.107-11.404-11.404-11.404
		s-11.403,5.107-11.403,11.404v7.982C421.714,246.587,426.821,251.694,433.117,251.694z"/>
	<path fill="#9BD23D" d="M421.714,301.618c0,6.297,5.106,11.404,11.403,11.404s11.404-5.106,11.404-11.404v-17.888
		c0-6.297-5.107-11.404-11.404-11.404s-11.403,5.107-11.403,11.404V301.618z"/>
	<path fill="#9BD23D" d="M421.714,353.044c0,6.297,5.106,11.404,11.403,11.404s11.404-5.106,11.404-11.404v-7.983
		c0-6.297-5.107-11.404-11.404-11.404s-11.403,5.107-11.403,11.404V353.044z"/>
	<path fill="#9BD23D" d="M342.799,251.694c6.297,0,11.404-5.106,11.404-11.404v-7.982c0-6.297-5.107-11.404-11.404-11.404
		s-11.404,5.107-11.404,11.404v7.982C331.395,246.587,336.502,251.694,342.799,251.694z"/>
	<path fill="#9BD23D" d="M331.395,289.641c0,6.297,5.107,11.404,11.404,11.404s11.404-5.106,11.404-11.404v-14.394
		c0-6.297-5.107-11.404-11.404-11.404s-11.404,5.106-11.404,11.404V289.641z"/>
	<path fill="#9BD23D" d="M331.395,332.582c0,6.297,5.107,11.404,11.404,11.404s11.404-5.107,11.404-11.404v-7.983
		c0-6.297-5.107-11.404-11.404-11.404s-11.404,5.106-11.404,11.404V332.582z"/>
	<path fill="#9BD23D" d="M252.481,251.694c6.298,0,11.404-5.106,11.404-11.404v-7.982c0-6.297-5.106-11.404-11.404-11.404
		c-6.297,0-11.403,5.107-11.403,11.404v7.982C241.077,246.587,246.184,251.694,252.481,251.694z"/>
	<path fill="#9BD23D" d="M241.077,289.641c0,6.297,5.106,11.404,11.403,11.404c6.298,0,11.404-5.106,11.404-11.404v-14.394
		c0-6.297-5.106-11.404-11.404-11.404c-6.297,0-11.403,5.106-11.403,11.404V289.641z"/>
	<path fill="#9BD23D" d="M241.077,332.582c0,6.297,5.106,11.404,11.403,11.404c6.298,0,11.404-5.107,11.404-11.404v-7.983
		c0-6.297-5.106-11.404-11.404-11.404c-6.297,0-11.403,5.106-11.403,11.404V332.582z"/>
	<path fill="#9BD23D" d="M523.436,220.903c-6.297,0-11.403,5.107-11.403,11.404v7.982c0,6.297,5.106,11.404,11.403,11.404
		s11.404-5.106,11.404-11.404v-7.982C534.84,226.01,529.733,220.903,523.436,220.903z"/>
	<path fill="#9BD23D" d="M523.436,363.693c-6.297,0-11.403,5.106-11.403,11.404v14.517c0,6.297,5.106,11.403,11.403,11.403
		s11.404-5.106,11.404-11.403v-14.517C534.84,368.8,529.733,363.693,523.436,363.693z"/>
	<path fill="#9BD23D" d="M523.436,313.918c-6.297,0-11.403,5.106-11.403,11.404v14.517c0,6.297,5.106,11.404,11.403,11.404
		s11.404-5.107,11.404-11.404v-14.517C534.84,319.024,529.733,313.918,523.436,313.918z"/>
	<path fill="#9BD23D" d="M523.436,264.143c-6.297,0-11.403,5.106-11.403,11.403v14.518c0,6.297,5.106,11.404,11.403,11.404
		s11.404-5.107,11.404-11.404v-14.518C534.84,269.249,529.733,264.143,523.436,264.143z"/>
	<path fill="#9BD23D" d="M523.436,413.469c-6.297,0-11.403,5.106-11.403,11.404v7.982c0,6.297,5.106,11.403,11.403,11.403
		s11.404-5.106,11.404-11.403v-7.982C534.84,418.575,529.733,413.469,523.436,413.469z"/>
</g>
</svg>
