<?xml version="1.0" encoding="utf-8"?>
<!-- Generator: Adobe Illustrator 15.1.0, SVG Export Plug-In . SVG Version: 6.00 Build 0)  -->
<!DOCTYPE svg PUBLIC "-//W3C//DTD SVG 1.1//EN" "http://www.w3.org/Graphics/SVG/1.1/DTD/svg11.dtd">
<svg version="1.1" id="Capa_1" xmlns="http://www.w3.org/2000/svg" xmlns:xlink="http://www.w3.org/1999/xlink" x="0px" y="0px"
	 width="500px" height="500px" viewBox="0 0 500 500" enable-background="new 0 0 500 500" xml:space="preserve">
<g>
	<g>
		<g>
			<path fill="#A1CE35" d="M310.993,220.731v44.428h-43.067h-17h-16.078h-44.853v-44.428H310.993 M63.105,306.492
				c12.313,0,22.562,4.218,31.332,12.895c7.803,7.719,12.273,16.935,14.243,21.741l4.326,10.552h11.404h110.438h16.078v0.002h17
				h107.647h11.405l4.325-10.554c1.97-4.807,6.438-14.021,14.24-21.741c8.769-8.675,19.017-12.893,31.33-12.893
				c9.269,0,16.847,1.948,22.94,4.728c-29.456,2.141-47.05,20.442-47.425,49.876l-0.002,0.218l0.002,0.217
				c0.377,29.391,17.974,47.666,47.43,49.801c-6.094,2.781-13.671,4.729-22.941,4.729c-12.315,0-22.564-4.218-31.334-12.894
				c-7.803-7.72-12.27-16.934-14.238-21.739l-4.324-10.556h-11.407H267.928h-17h-16.079H124.41h-11.406l-4.325,10.554
				c-1.969,4.807-6.438,14.021-14.24,21.74c-8.769,8.676-19.019,12.894-31.334,12.894c-9.27,0-16.849-1.949-22.942-4.729
				c29.457-2.14,47.053-20.442,47.429-49.877l0.003-0.217l-0.003-0.218c-0.376-29.389-17.972-47.662-47.427-49.8
				C46.26,308.44,53.837,306.492,63.105,306.492 M322.382,203.731H178.607c-3.1,0-5.611,2.513-5.611,5.612v67.204
				c0,3.102,2.513,5.612,5.611,5.612h56.241v52.521H124.409c-5.23-12.76-22.38-45.188-61.305-45.188
				c-24.654,0-40.438,10.75-49.337,19.767c-9.644,9.774-13.42,19.499-13.576,19.909c-0.403,1.061-0.158,2.259,0.628,3.074
				c0.562,0.583,1.329,0.896,2.112,0.896c0.314,0,0.631-0.05,0.939-0.154c0.146-0.049,14.838-4.975,30.351-4.975
				c23.854,0,36.09,11.205,36.372,33.229c-0.282,22.098-12.518,33.304-36.37,33.305c-0.001,0-0.004,0-0.005,0
				c-15.515,0-30.202-4.926-30.348-4.975c-0.308-0.104-0.625-0.154-0.94-0.154c-0.783,0-1.55,0.313-2.112,0.896
				c-0.787,0.816-1.031,2.016-0.628,3.074c0.156,0.408,3.933,10.135,13.577,19.909c8.899,9.019,24.683,19.768,49.337,19.768
				c38.932,0,56.076-32.428,61.305-45.188h110.438v71.313c0,1.616,1.312,2.93,2.929,2.93h27.221c1.618,0,2.93-1.313,2.93-2.93
				v-71.313h107.646c5.228,12.761,22.373,45.188,61.304,45.188c24.655,0,40.438-10.749,49.338-19.769
				c9.646-9.774,13.421-19.501,13.577-19.909c0.403-1.06,0.159-2.259-0.629-3.074c-0.563-0.583-1.329-0.898-2.112-0.898
				c-0.315,0-0.633,0.051-0.941,0.156c-0.146,0.052-14.798,4.976-30.353,4.976c-23.852,0-36.087-11.206-36.369-33.229
				c0.281-22.099,12.52-33.304,36.371-33.304c15.515,0,30.205,4.923,30.352,4.974c0.297,0.103,0.604,0.151,0.908,0.154
				c0.037,0.001,0.075,0.002,0.111,0.002c1.586,0,2.867-1.332,2.867-2.93c0-0.493-0.121-0.96-0.338-1.368
				c-0.745-1.815-4.662-10.681-13.447-19.583c-8.898-9.016-24.683-19.766-49.339-19.766c-38.926,0-56.071,32.426-61.301,45.188
				H267.926v-52.522h54.456c3.101,0,5.611-2.515,5.611-5.612v-67.204C327.993,206.243,325.481,203.731,322.382,203.731
				L322.382,203.731z"/>
		</g>
		<path fill="#A1CE35" d="M13.419,284.732c3.063,1.324,6.604,0.886,9.253-1.146c0.202-0.155,20.529-13.396,44.494-13.396
			c19.049,0,35.253,7.918,48.163,27.748c1.732,2.664,4.665,4.186,7.716,4.186c0.13,0,0.26-0.003,0.391-0.01
			c4.91-0.197,8.83-4.238,8.83-9.197c0-0.387-0.023-0.766-0.07-1.139c-1.833-30.457,5.501-72.672,31.595-100.493
			c19.979-21.301,48.61-32.101,85.103-32.101l0.656,0.001l0.688-0.002c37.104,0,66.043,10.801,86.022,32.101
			c32.056,34.176,31.538,83.763,30.617,98.148c-0.268,4.176,2.314,8.006,6.285,9.324c3.974,1.319,8.332-0.208,10.615-3.714
			c12.479-19.169,28.043-25.687,46.261-25.687c24.465,0,45.992,13.906,46.191,14.067c2.626,2.134,6.213,2.655,9.337,1.354
			c3.125-1.297,5.286-4.207,5.627-7.572c0.211-2.086,4.976-51.557-12.454-90.719c-2.014-4.526-7.252-6.647-11.85-4.795l-2.958,1.191
			c-10.759,4.333-35.367,14.248-49.225,19.768c-2.063-3.989-5.228-9.267-10.059-16.453c-2.778-4.131-5.534-8.038-7.759-11.128
			c8.741-8.38,25.46-24.479,37.435-36.45c3.041-3.041,3.571-7.781,1.279-11.419c-29.025-46.04-66.22-67.86-92.313-78.061
			c-28.475-11.132-50.115-11.261-51.022-11.261c-4.603,0-8.496,3.397-9.12,7.958l-6.92,50.572h-53.354l-6.919-50.574
			c-0.624-4.56-4.519-7.957-9.12-7.957c-0.907,0-22.549,0.127-51.024,11.259C129.72,59.339,92.526,81.161,63.502,127.2
			c-2.293,3.638-1.763,8.377,1.277,11.417c11.975,11.974,28.692,28.073,37.436,36.453c-2.227,3.09-4.983,6.997-7.759,11.128
			c-4.832,7.186-7.994,12.464-10.06,16.453c-14.345-5.714-40.211-16.138-50.16-20.147l-2.02-0.814
			c-4.598-1.852-9.836,0.268-11.851,4.796C2.936,225.649,7.699,275.12,7.911,277.206C8.248,280.53,10.356,283.411,13.419,284.732z
			 M33.939,202.236c16.225,6.536,45.954,18.499,52.528,21.027c2.83,1.089,8.254,2.413,12.496-8.09s12.662-22.184,22.8-35.621
			c2.816-3.732,2.387-8.983-0.997-12.208c-0.233-0.225-21.298-20.302-37.664-36.472c20.476-30.076,46.901-51.687,78.645-64.282
			c15.681-6.222,29.115-8.686,37.144-9.661l6.832,49.937c0.625,4.559,4.52,7.956,9.121,7.956h69.418
			c4.602,0,8.496-3.397,9.121-7.956l6.832-49.94C320.518,59.402,375.53,71.542,416,130.877
			c-16.365,16.165-37.428,36.242-37.662,36.467c-3.386,3.225-3.813,8.476-0.997,12.208c10.139,13.434,18.956,26.224,22.801,35.621
			c3.844,9.397,9.663,9.181,12.496,8.09c6.586-2.531,36.181-14.441,52.528-21.026c7.03,20.343,8.363,42.976,8.327,57.597
			c-10.624-5.773-26.191-8.883-43.455-8.883c-12.573,0-29.204,0.297-45.102,14.432c-2.008-24.508-9.744-59.5-35.249-86.691
			c-23.599-25.16-57.059-37.917-99.451-37.917l-0.691,0.002h-0.652c-41.782,0-74.933,12.756-98.531,37.915
			c-26.354,28.1-34.228,64.293-36.223,89.453c-16.498-14.838-33.863-16.365-46.972-16.365c-16.519,0-31.351,3.434-41.552,8.599
			C25.543,245.778,26.821,222.834,33.939,202.236z"/>
	</g>
</g>
</svg>
