<?xml version="1.0" encoding="utf-8"?>
<!-- Generator: Adobe Illustrator 19.0.0, SVG Export Plug-In . SVG Version: 6.00 Build 0)  -->
<svg version="1.1" id="Layer_1" xmlns="http://www.w3.org/2000/svg" xmlns:xlink="http://www.w3.org/1999/xlink" x="0px" y="0px"
	 viewBox="-7 224.1 470.3 110.2" style="enable-background:new -7 224.1 470.3 110.2;" xml:space="preserve">
<style type="text/css">
	.st0{fill:#000;}
	
</style>
<g id="XMLID_12_">
	<g id="XMLID_241_">
		<path id="XMLID_267_" d="M130.7,298.4v1.9H127v10.4h-2.3v-10.4H121v-1.9H130.7z"/>
		<path id="XMLID_265_" d="M151.2,305.9v4.8h-2.3v-4.8l-4.5-7.5h2c0.2,0,0.4,0,0.5,0.1s0.2,0.2,0.3,0.4l2.3,4.1
			c0.1,0.2,0.2,0.5,0.3,0.7c0.1,0.2,0.2,0.4,0.3,0.6c0.1-0.2,0.2-0.4,0.3-0.6c0.1-0.2,0.2-0.4,0.3-0.7l2.2-4.1
			c0.1-0.1,0.2-0.2,0.3-0.3s0.3-0.2,0.5-0.2h2L151.2,305.9z"/>
		<path id="XMLID_262_" d="M172.8,305.9v4.8h-2.3v-12.3h3.7c0.8,0,1.6,0.1,2.2,0.3c0.6,0.2,1.1,0.4,1.5,0.7c0.4,0.3,0.7,0.7,0.8,1.1
			c0.2,0.4,0.3,0.9,0.3,1.4c0,0.4-0.1,0.8-0.2,1.2c-0.1,0.4-0.3,0.7-0.5,1c-0.2,0.3-0.5,0.6-0.8,0.8c-0.3,0.2-0.7,0.4-1.2,0.5
			c0.3,0.2,0.5,0.4,0.7,0.7l3.1,4.5H178c-0.2,0-0.4,0-0.5-0.1s-0.3-0.2-0.4-0.3l-2.6-3.9c-0.1-0.1-0.2-0.3-0.3-0.3
			c-0.1-0.1-0.3-0.1-0.5-0.1L172.8,305.9L172.8,305.9z M172.8,304.3h1.4c0.4,0,0.8-0.1,1.1-0.2s0.6-0.3,0.8-0.4
			c0.2-0.2,0.4-0.4,0.5-0.7c0.1-0.3,0.2-0.5,0.2-0.9c0-0.6-0.2-1.1-0.6-1.4s-1-0.5-1.9-0.5h-1.5V304.3z"/>
		<path id="XMLID_260_" d="M202.9,298.4v1.8h-5.4v3.4h4.3v1.8h-4.3v3.5h5.4v1.8h-7.7v-12.3H202.9z"/>
		<path id="XMLID_258_" d="M225,300.7c-0.1,0.1-0.1,0.2-0.2,0.3s-0.2,0.1-0.3,0.1s-0.2,0-0.4-0.1c-0.1-0.1-0.3-0.2-0.5-0.3
			s-0.4-0.2-0.7-0.3c-0.3-0.1-0.6-0.1-0.9-0.1s-0.6,0-0.8,0.1c-0.2,0.1-0.4,0.2-0.6,0.3s-0.3,0.3-0.4,0.5c-0.1,0.2-0.1,0.4-0.1,0.6
			c0,0.3,0.1,0.5,0.2,0.7c0.1,0.2,0.4,0.4,0.6,0.5s0.6,0.3,0.9,0.4c0.3,0.1,0.7,0.2,1,0.3s0.7,0.3,1,0.4c0.3,0.1,0.6,0.4,0.9,0.6
			c0.3,0.2,0.5,0.5,0.6,0.9c0.2,0.4,0.2,0.8,0.2,1.3c0,0.6-0.1,1.1-0.3,1.6c-0.2,0.5-0.5,0.9-0.8,1.3c-0.4,0.4-0.8,0.6-1.3,0.8
			c-0.5,0.2-1.1,0.3-1.8,0.3c-0.4,0-0.8,0-1.2-0.1c-0.4-0.1-0.7-0.2-1.1-0.3s-0.7-0.3-1-0.5c-0.3-0.2-0.6-0.4-0.8-0.7l0.7-1.1
			c0.1-0.1,0.1-0.1,0.2-0.2s0.2-0.1,0.3-0.1c0.1,0,0.3,0.1,0.5,0.2c0.2,0.1,0.4,0.2,0.6,0.4c0.2,0.1,0.5,0.3,0.8,0.4
			c0.3,0.1,0.7,0.2,1.1,0.2c0.7,0,1.2-0.2,1.5-0.5c0.4-0.3,0.5-0.8,0.5-1.3c0-0.3-0.1-0.6-0.2-0.8c-0.2-0.2-0.4-0.4-0.6-0.5
			c-0.3-0.1-0.6-0.3-0.9-0.4s-0.7-0.2-1-0.3s-0.7-0.2-1-0.4c-0.3-0.2-0.6-0.4-0.9-0.6c-0.3-0.3-0.5-0.6-0.6-1s-0.2-0.9-0.2-1.4
			c0-0.4,0.1-0.9,0.3-1.3c0.2-0.4,0.4-0.8,0.8-1.1c0.3-0.3,0.8-0.6,1.3-0.8c0.5-0.2,1.1-0.3,1.7-0.3c0.7,0,1.4,0.1,2,0.3
			c0.6,0.2,1.1,0.5,1.6,1L225,300.7z"/>
		<path id="XMLID_255_" d="M269.8,304.6c0,0.9-0.1,1.7-0.5,2.5c-0.3,0.8-0.7,1.4-1.3,2s-1.2,1-2,1.3c-0.8,0.3-1.6,0.5-2.5,0.5
			s-1.8-0.2-2.5-0.5c-0.8-0.3-1.4-0.8-2-1.3s-1-1.2-1.3-2c-0.3-0.8-0.5-1.6-0.5-2.5s0.2-1.7,0.5-2.5c0.3-0.8,0.7-1.4,1.3-2
			c0.5-0.6,1.2-1,2-1.3c0.8-0.3,1.6-0.5,2.5-0.5s1.8,0.2,2.5,0.5c0.8,0.3,1.4,0.8,2,1.3s1,1.2,1.3,2
			C269.6,302.8,269.8,303.7,269.8,304.6z M267.5,304.6c0-0.7-0.1-1.3-0.3-1.8c-0.2-0.5-0.4-1-0.8-1.4c-0.3-0.4-0.7-0.7-1.2-0.9
			c-0.5-0.2-1-0.3-1.6-0.3s-1.1,0.1-1.6,0.3c-0.5,0.2-0.9,0.5-1.2,0.9c-0.3,0.4-0.6,0.8-0.8,1.4c-0.2,0.5-0.3,1.1-0.3,1.8
			c0,0.7,0.1,1.3,0.3,1.8c0.2,0.5,0.4,1,0.8,1.4c0.3,0.4,0.7,0.7,1.2,0.9c0.5,0.2,1,0.3,1.6,0.3s1.1-0.1,1.6-0.3
			c0.5-0.2,0.9-0.5,1.2-0.9c0.3-0.4,0.6-0.8,0.8-1.4C267.4,305.9,267.5,305.3,267.5,304.6z"/>
		<path id="XMLID_253_" d="M286.6,298.5c0.1,0,0.1,0,0.2,0.1s0.1,0.1,0.2,0.1s0.1,0.1,0.2,0.2l6.4,8.2c0-0.2,0-0.4,0-0.6
			s0-0.4,0-0.5v-7.5h2v12.3h-1.2c-0.2,0-0.3,0-0.5-0.1s-0.2-0.2-0.3-0.3l-6.4-8.2c0,0.2,0,0.4,0,0.5c0,0.2,0,0.3,0,0.5v7.5h-2v-12.3
			h1.2C286.5,298.4,286.6,298.4,286.6,298.5z"/>
		<path id="XMLID_251_" d="M337.1,298.4v1.9h-3.7v10.4h-2.3v-10.4h-3.7v-1.9H337.1z"/>
		<path id="XMLID_249_" d="M362.5,310.7h-2.3v-5.4h-5.8v5.4h-2.3v-12.3h2.3v5.3h5.8v-5.3h2.3V310.7z"/>
		<path id="XMLID_247_" d="M386.3,298.4v1.8h-5.4v3.4h4.3v1.8h-4.3v3.5h5.4v1.8h-7.7v-12.3H386.3z"/>
		<path id="XMLID_245_" d="M424.4,309c0.5,0,1,0,1.3-0.1c0.4-0.1,0.7-0.2,1.1-0.4v-2.2h-1.5c-0.1,0-0.3,0-0.3-0.1s-0.1-0.2-0.1-0.3
			v-1.3h4.1v5c-0.3,0.2-0.6,0.4-1,0.6c-0.3,0.2-0.7,0.3-1.1,0.4s-0.8,0.2-1.2,0.2c-0.4,0.1-0.9,0.1-1.4,0.1c-0.9,0-1.7-0.2-2.5-0.5
			c-0.8-0.3-1.4-0.7-2-1.3s-1-1.2-1.3-2c-0.3-0.8-0.5-1.6-0.5-2.5s0.1-1.8,0.5-2.5c0.3-0.8,0.7-1.4,1.3-2s1.2-1,2-1.3
			c0.8-0.3,1.7-0.5,2.6-0.5c1,0,1.9,0.1,2.6,0.4c0.7,0.3,1.4,0.7,1.9,1.2l-0.7,1c-0.1,0.2-0.3,0.3-0.5,0.3c-0.1,0-0.3,0-0.4-0.1
			c-0.2-0.1-0.4-0.2-0.6-0.3s-0.4-0.2-0.6-0.3s-0.5-0.1-0.8-0.2c-0.3-0.1-0.6-0.1-1-0.1c-0.6,0-1.2,0.1-1.6,0.3
			c-0.5,0.2-0.9,0.5-1.3,0.9c-0.3,0.4-0.6,0.8-0.8,1.4c-0.2,0.5-0.3,1.1-0.3,1.8c0,0.7,0.1,1.3,0.3,1.9c0.2,0.6,0.5,1,0.8,1.4
			s0.8,0.7,1.3,0.9C423.2,309,423.8,309,424.4,309z"/>
		<path id="XMLID_242_" d="M456.4,304.6c0,0.9-0.1,1.7-0.5,2.5c-0.3,0.8-0.7,1.4-1.3,2s-1.2,1-2,1.3c-0.8,0.3-1.6,0.5-2.5,0.5
			s-1.8-0.2-2.5-0.5c-0.8-0.3-1.4-0.8-2-1.3s-1-1.2-1.3-2c-0.3-0.8-0.5-1.6-0.5-2.5s0.2-1.7,0.5-2.5c0.3-0.8,0.7-1.4,1.3-2
			c0.5-0.6,1.2-1,2-1.3c0.8-0.3,1.6-0.5,2.5-0.5s1.8,0.2,2.5,0.5c0.8,0.3,1.4,0.8,2,1.3s1,1.2,1.3,2
			C456.2,302.8,456.4,303.7,456.4,304.6z M454,304.6c0-0.7-0.1-1.3-0.3-1.8s-0.4-1-0.8-1.4c-0.3-0.4-0.7-0.7-1.2-0.9
			c-0.5-0.2-1-0.3-1.6-0.3s-1.1,0.1-1.6,0.3c-0.5,0.2-0.9,0.5-1.2,0.9s-0.6,0.8-0.8,1.4c-0.2,0.5-0.3,1.1-0.3,1.8
			c0,0.7,0.1,1.3,0.3,1.8s0.4,1,0.8,1.4c0.3,0.4,0.7,0.7,1.2,0.9c0.5,0.2,1,0.3,1.6,0.3s1.1-0.1,1.6-0.3c0.5-0.2,0.9-0.5,1.2-0.9
			s0.6-0.8,0.8-1.4C453.9,305.9,454,305.3,454,304.6z"/>
	</g>
</g>
<path style="fill: #1F45FC;" id="XMLID_866_" d="M117.5,247.4l-26.8-2.9h26.2L117.5,247.4z M118.1,250.6l0.6,2.9l-26.8-2.9H118.1z M119.3,256.7l0.6,2.8
	l-26.8-2.8H119.3z M120.7,283.9l-26.8-2.8h27.3L120.7,283.9z M121,265.6l-26.9-2.8h26.4L121,265.6z M121.8,277.8L95,274.9h27.2
	L121.8,277.8z M122.2,271.7l-26.9-2.9h26.3L122.2,271.7z M132.1,244.5l0.8,13.9h0.4l5.8-13.9h13.4l-16,28.8l-1.8,10.8h-12l1.8-10.8
	l-5.7-28.8H132.1z"/>
<path style="fill: #1F45FC;" id="XMLID_854_" d="M157.1,284.1h-12.6l16.7-39.6h18.6l2.8,39.6h-12.7l-0.3-6.3h-9.9L157.1,284.1z M168.6,267.8v-11.1H168
	l-4.5,11.1H168.6z"/>
<path style="fill: #1F45FC;" id="XMLID_852_" d="M213.1,284.1H189l7-39.6h12l-5.2,29.5h12L213.1,284.1z"/>
<path style="fill: #1F45FC;" id="XMLID_737_" d="M245.7,284.1h-24.1l7-39.6h12l-5.2,29.5h12L245.7,284.1z"/>
<path style="fill: #1F45FC;" id="XMLID_734_" d="M266.4,284.1h-12.7l16.7-39.6H289l2.8,39.6h-12.7l-0.3-6.3h-9.9L266.4,284.1z M277.9,267.8v-11.1h-0.6
	l-4.4,11.1H277.9z"/>
<path id="XMLID_732_" class="st0" d="M343.3,254.6h-8.7l-5.1,29.5h-12l5.1-29.5h-8.7l1.8-10.1h29.5L343.3,254.6z"/>
<path id="XMLID_571_" class="st0" d="M365.5,244.5l0.8,13.9h0.4l5.8-13.9h13.3l-16,28.8l-1.8,10.8h-12l1.8-10.8l-5.7-28.8H365.5z"/>
<path id="XMLID_436_" class="st0" d="M413,244.5c7.2,0,10.8,3.2,10.8,9.7c0,2.7-0.4,5.2-1.2,7.6c-1.5,4.6-3.8,7.6-7,9.1l4.2,13.2
	h-13.2l-2.9-11.8h-2.6l-2,11.8h-12l7-39.6L413,244.5L413,244.5z M405.5,262.6c1.4,0,2.5-0.2,3.3-0.5c0.7-0.3,1.2-1.2,1.5-2.7
	s0.4-2.4,0.4-2.8c0-0.8-0.3-1.4-1-1.6c-0.7-0.2-1.7-0.3-3.2-0.3h-2.4l-1.4,7.9H405.5L405.5,262.6z"/>
<path id="XMLID_431_" class="st0" d="M453.9,269.1h-12l-0.8,4.8h14.8l-1.8,10.1h-26.8l7-39.6h26.5l-3.3,10.1h-13l-0.9,5.3h12
	L453.9,269.1z"/>
<g id="XMLID_351_">
	<polygon style="fill: #1F45FC;" id="XMLID_363_" class="st1" points="40.2,268.2 33.8,321.2 46.8,312.4 53.6,333.8 68.3,329.4 61.3,307.7 76.4,307.3 	"/>
	<path id="XMLID_353_" d="M28.9,290.8c-6.5-3.9-10.9-11-10.9-19.2c0-12.3,10-22.3,22.3-22.3s22.3,10,22.3,22.3
		c0,2.6-0.5,5.1-1.3,7.4l2.9,3.1c1.4-3.2,2.2-6.8,2.2-10.6c0-14.5-11.7-26.2-26.2-26.2S14,257,14,271.5c0,10.2,5.8,19,14.3,23.3
		L28.9,290.8z"/>
	<path id="XMLID_352_" d="M40.3,224.5c-26,0-47,21.1-47,47c0,21,13.7,38.7,32.7,44.8l2.1-18c-10.2-4.7-17.3-14.9-17.3-26.8
		c0-16.3,13.2-29.5,29.5-29.5s29.5,13.2,29.5,29.5c0,4.7-1.1,9.2-3.1,13.1L79.1,298c5.2-7.6,8.2-16.7,8.2-26.6
		C87.3,245.5,66.3,224.5,40.3,224.5z"/>
</g>
</svg>
