<?xml version="1.0" encoding="utf-8"?>
<!-- Generator: Adobe Illustrator 15.1.0, SVG Export Plug-In . SVG Version: 6.00 Build 0)  -->
<!DOCTYPE svg PUBLIC "-//W3C//DTD SVG 1.1//EN" "http://www.w3.org/Graphics/SVG/1.1/DTD/svg11.dtd">
<svg version="1.1" id="Layer_1" xmlns="http://www.w3.org/2000/svg" xmlns:xlink="http://www.w3.org/1999/xlink" x="0px" y="0px"
	 width="595.279px" height="162.016px" viewBox="0 339.256 595.279 162.016" enable-background="new 0 339.256 595.279 162.016"
	 xml:space="preserve">
<g transform="matrix(1.25 0 0 -1.25 -5.9169 86.523)">
	<g transform="matrix(1.6614 0 0 1.6614 -4.189 -4.9973)">
		<g>
			<defs>
				<rect id="SVGID_1_" x="-173.006" y="-263.366" width="646.97" height="210.163"/>
			</defs>
			<clipPath id="SVGID_2_">
				<use xlink:href="#SVGID_1_"  overflow="visible"/>
			</clipPath>
			<g clip-path="url(#SVGID_2_)">
				<g transform="translate(32.419 40.982)">
					<path fill="#003087" d="M26.623-168.546c-3.322,3.786-9.326,5.409-17.007,5.409h-22.293c-1.572,0-2.907-1.143-3.153-2.693
						l-9.282-58.871c-0.184-1.161,0.714-2.212,1.891-2.212h13.763l3.456,21.924l-0.107-0.687c0.246,1.549,1.572,2.693,3.141,2.693
						h6.541c12.848,0,22.908,5.219,25.847,20.315c0.087,0.446,0.163,0.881,0.228,1.306
						C30.522-175.783,29.641-171.985,26.623-168.546"/>
				</g>
				<g transform="translate(117.33 26.863)">
					<path fill="#009CDE" d="M110.198-182.443c-0.841-5.524-5.06-5.524-9.141-5.524h-2.322l1.629,10.314
						c0.097,0.623,0.635,1.082,1.266,1.082h1.066c2.778,0,5.401,0,6.754-1.581C110.26-179.1,110.504-180.504,110.198-182.443
						 M108.422-168.029h-15.39c-1.053,0-1.948-0.766-2.113-1.806l-6.223-39.463c-0.123-0.778,0.48-1.482,1.266-1.482h7.898
						c0.736,0,1.363,0.536,1.478,1.262l1.766,11.189c0.163,1.04,1.06,1.806,2.111,1.806h4.869c10.138,0,15.989,4.905,17.517,14.63
						c0.688,4.25,0.028,7.592-1.962,9.931C117.45-169.39,113.571-168.029,108.422-168.029"/>
				</g>
				<g transform="translate(62.012 26.863)">
					<path fill="#003087" d="M55.751-182.443c-0.842-5.524-5.06-5.524-9.142-5.524h-2.322l1.629,10.314
						c0.097,0.623,0.635,1.082,1.266,1.082h1.066c2.778,0,5.401,0,6.754-1.581C55.812-179.1,56.056-180.504,55.751-182.443
						 M53.975-168.029h-15.39c-1.054,0-1.949-0.766-2.113-1.806l-6.223-39.463c-0.123-0.778,0.478-1.482,1.266-1.482h7.35
						c1.051,0,1.946,0.766,2.111,1.804l1.681,10.648c0.163,1.04,1.059,1.806,2.111,1.806h4.87c10.137,0,15.989,4.905,17.517,14.63
						c0.689,4.25,0.028,7.592-1.962,9.931C63.003-169.39,59.124-168.029,53.975-168.029"/>
				</g>
				<g transform="translate(79.123 19.723)">
					<path fill="#003087" d="M72.592-189.471c-0.712-4.21-4.054-7.038-8.318-7.038c-2.137,0-3.849,0.688-4.949,1.99
						c-1.089,1.29-1.5,3.129-1.155,5.175c0.663,4.175,4.06,7.092,8.259,7.092c2.093,0,3.792-0.695,4.913-2.008
						C72.471-185.583,72.916-187.433,72.592-189.471 M82.863-175.126h-7.37c-0.631,0-1.169-0.458-1.268-1.083l-0.324-2.06
						l-0.514,0.746c-1.597,2.316-5.155,3.091-8.707,3.091c-8.141,0-15.096-6.171-16.449-14.824
						c-0.704-4.318,0.295-8.443,2.744-11.322c2.248-2.645,5.457-3.746,9.28-3.746c6.564,0,10.203,4.215,10.203,4.215l-0.329-2.048
						c-0.123-0.778,0.478-1.482,1.268-1.482h6.635c1.053,0,1.948,0.764,2.113,1.804l3.984,25.228
						C84.253-175.83,83.651-175.126,82.863-175.126"/>
				</g>
				<g transform="translate(134.44 19.723)">
					<path fill="#009CDE" d="M127.039-189.471c-0.712-4.21-4.054-7.038-8.318-7.038c-2.137,0-3.85,0.688-4.949,1.99
						c-1.091,1.29-1.501,3.129-1.155,5.175c0.663,4.175,4.06,7.092,8.258,7.092c2.093,0,3.792-0.695,4.913-2.008
						C126.918-185.583,127.362-187.433,127.039-189.471 M137.309-175.126h-7.37c-0.631,0-1.169-0.458-1.268-1.083l-0.323-2.06
						l-0.516,0.746c-1.596,2.316-5.153,3.091-8.705,3.091c-8.142,0-15.096-6.171-16.45-14.824
						c-0.704-4.318,0.296-8.443,2.744-11.322c2.248-2.645,5.457-3.746,9.281-3.746c6.564,0,10.203,4.215,10.203,4.215l-0.33-2.048
						c-0.123-0.778,0.478-1.482,1.268-1.482h6.635c1.054,0,1.949,0.764,2.113,1.804l3.984,25.228
						C138.7-175.83,138.097-175.126,137.309-175.126"/>
				</g>
				<g transform="translate(104.08 26.952)">
					<path fill="#003087" d="M97.157-182.355h-7.407c-0.709,0-1.371-0.351-1.768-0.939l-10.219-15.049l-4.329,14.462
						c-0.272,0.905-1.106,1.526-2.05,1.526h-7.28c-0.879,0-1.498-0.865-1.215-1.697l8.155-23.943l-7.671-10.824
						c-0.601-0.849,0.006-2.024,1.048-2.024h7.399c0.701,0,1.357,0.343,1.758,0.918l24.632,35.555
						C98.8-183.518,98.192-182.355,97.157-182.355"/>
				</g>
				<g transform="translate(144 33.581)">
					<path fill="#009CDE" d="M136.448-175.831l-6.316-40.185c-0.123-0.778,0.478-1.482,1.266-1.482h6.354
						c1.051,0,1.948,0.766,2.111,1.806l6.229,39.463c0.123,0.778-0.478,1.482-1.268,1.482h-7.108
						C137.084-174.747,136.546-175.205,136.448-175.831"/>
				</g>
				<g transform="translate(32.419 40.982)">
					<path fill="#003087" d="M26.623-168.546c-3.322,3.786-9.326,5.409-17.007,5.409h-22.293c-1.572,0-2.907-1.143-3.153-2.693
						l-9.282-58.871c-0.184-1.161,0.714-2.212,1.891-2.212h13.763l3.456,21.924l-0.107-0.687c0.246,1.549,1.572,2.693,3.141,2.693
						h6.541c12.848,0,22.908,5.219,25.847,20.315c0.087,0.446,0.163,0.881,0.228,1.306
						C30.522-175.783,29.641-171.985,26.623-168.546"/>
				</g>
				<g transform="translate(17.849 34.485)">
					<path fill="#003087" d="M12.282-174.941c0.147,0.932,0.746,1.696,1.552,2.083c0.367,0.175,0.775,0.272,1.204,0.272h17.477
						c2.07,0,4-0.135,5.765-0.419c0.506-0.081,0.996-0.174,1.472-0.282c0.476-0.105,0.939-0.224,1.387-0.355
						c0.224-0.065,0.444-0.133,0.661-0.204c0.867-0.29,1.675-0.627,2.417-1.022c0.875,5.582-0.006,9.378-3.024,12.816
						c-3.324,3.786-9.326,5.409-17.007,5.409H1.891c-1.57,0-2.905-1.143-3.151-2.693l-9.282-58.869
						c-0.184-1.163,0.714-2.212,1.889-2.212H5.111l3.456,21.924L12.282-174.941z"/>
				</g>
				<g transform="translate(33.943 34.523)">
					<path fill="#009CDE" d="M28.123-174.903c-0.067-0.427-0.141-0.859-0.228-1.306c-2.939-15.094-12.999-20.315-25.847-20.315
						h-6.542c-1.57,0-2.895-1.143-3.139-2.693l-3.349-21.236l-0.951-6.024c-0.16-1.016,0.625-1.936,1.653-1.936H1.321
						c1.373,0,2.542,1,2.756,2.355l0.113,0.591l2.187,13.858l0.141,0.766c0.214,1.355,1.383,2.355,2.756,2.355h1.736
						c11.239,0,20.039,4.566,22.611,17.771c1.074,5.518,0.518,10.126-2.322,13.362C30.438-176.374,29.369-175.564,28.123-174.903"/>
				</g>
				<g transform="translate(32.392 35.141)">
					<path fill="#012169" d="M26.596-174.295c-0.448,0.131-0.911,0.25-1.387,0.355c-0.476,0.105-0.969,0.198-1.472,0.28
						c-1.766,0.286-3.695,0.421-5.767,0.421H0.495c-0.431,0-0.839-0.097-1.204-0.274c-0.808-0.387-1.405-1.149-1.552-2.083
						l-3.715-23.551l-0.107-0.687c0.245,1.549,1.57,2.693,3.139,2.693h6.542c12.848,0,22.908,5.219,25.847,20.315
						c0.087,0.446,0.16,0.879,0.228,1.306c-0.744,0.393-1.55,0.732-2.417,1.02C27.041-174.43,26.821-174.361,26.596-174.295"/>
				</g>
			</g>
		</g>
	</g>
</g>
</svg>
