<?xml version="1.0" encoding="utf-8"?>
<!-- Generator: Adobe Illustrator 15.1.0, SVG Export Plug-In . SVG Version: 6.00 Build 0)  -->
<!DOCTYPE svg PUBLIC "-//W3C//DTD SVG 1.1//EN" "http://www.w3.org/Graphics/SVG/1.1/DTD/svg11.dtd">
<svg version="1.1" id="Layer_1" xmlns="http://www.w3.org/2000/svg" xmlns:xlink="http://www.w3.org/1999/xlink" x="0px" y="0px"
	 width="83.5px" height="30.167px" viewBox="1.667 12.667 83.5 30.167" enable-background="new 1.667 12.667 83.5 30.167"
	 xml:space="preserve">
<g>
	<g>
		<g>
			<path fill="#009CDE" d="M24.013,21.395c0.328-2.09-0.002-3.512-1.132-4.8c-1.244-1.417-3.492-2.024-6.368-2.024H8.166
				c-0.588,0-1.089,0.427-1.18,1.008L3.509,37.621c-0.069,0.436,0.268,0.828,0.708,0.828H9.37l-0.356,2.256
				c-0.06,0.381,0.234,0.725,0.62,0.725h4.344c0.514,0,0.952-0.373,1.032-0.882l0.042-0.221l0.818-5.188l0.053-0.287
				c0.08-0.508,0.518-0.883,1.032-0.883h0.649c4.209,0,7.503-1.71,8.467-6.654c0.402-2.066,0.194-3.791-0.87-5.003
				C24.881,21.944,24.48,21.642,24.013,21.395L24.013,21.395"/>
			<path fill="#012169" d="M24.013,21.395c0.328-2.09-0.002-3.512-1.132-4.8c-1.244-1.417-3.492-2.024-6.368-2.024H8.166
				c-0.588,0-1.089,0.427-1.18,1.008L3.509,37.621c-0.069,0.436,0.268,0.828,0.708,0.828H9.37l1.295-8.209l-0.041,0.258
				c0.092-0.581,0.588-1.008,1.175-1.008h2.45c4.811,0,8.577-1.955,9.678-7.607C23.961,21.715,23.988,21.553,24.013,21.395"/>
			<path fill="#003087" d="M12.056,21.422c0.055-0.35,0.279-0.635,0.581-0.78c0.137-0.065,0.29-0.102,0.451-0.102h6.544
				c0.775,0,1.498,0.051,2.159,0.157c0.188,0.029,0.372,0.065,0.551,0.104c0.178,0.039,0.352,0.084,0.52,0.134
				c0.083,0.023,0.167,0.049,0.248,0.077c0.325,0.106,0.626,0.234,0.904,0.382c0.328-2.09-0.002-3.512-1.132-4.8
				c-1.244-1.417-3.492-2.024-6.368-2.024H8.166c-0.588,0-1.089,0.427-1.18,1.008L3.509,37.621
				c-0.069,0.436,0.268,0.828,0.708,0.828H9.37l1.295-8.209L12.056,21.422z"/>
		</g>
		<g>
			<path fill="#003087" d="M59.854,28.374c0.035-0.211,0.22-0.367,0.434-0.367h4.023c3.323,0,5.649,2.611,5.127,5.966
				c-0.537,3.354-3.701,5.967-7.008,5.967h-4.102c-0.157,0-0.275-0.141-0.251-0.295L59.854,28.374z M61.543,37.311h0.695
				c1.854,0,3.594-1.013,3.973-3.338c0.333-2.137-0.887-3.339-2.878-3.339h-0.515c-0.123,0-0.229,0.091-0.25,0.216L61.543,37.311z"
				/>
			<path fill="#003087" d="M54.643,31l-0.26,1.628h3.2c0.157,0,0.274,0.14,0.251,0.293l-0.309,1.966
				c-0.031,0.213-0.215,0.367-0.43,0.367h-2.754c-0.215,0-0.396,0.154-0.433,0.366l-0.271,1.69h3.389
				c0.158,0,0.273,0.141,0.252,0.293l-0.307,1.965c-0.033,0.213-0.219,0.369-0.433,0.369h-6.119c-0.153,0-0.272-0.141-0.25-0.293
				l1.778-11.271c0.033-0.211,0.218-0.367,0.43-0.367H58.5c0.152,0,0.273,0.14,0.251,0.293l-0.31,1.967
				c-0.033,0.213-0.215,0.367-0.43,0.367H55.07C54.855,30.634,54.676,30.789,54.643,31z"/>
			<path fill="#003087" d="M72.146,39.938h-2.433c-0.155,0-0.274-0.14-0.252-0.293l1.78-11.271c0.029-0.211,0.214-0.367,0.429-0.367
				h2.433c0.155,0,0.273,0.14,0.252,0.294l-1.779,11.27C72.544,39.781,72.361,39.938,72.146,39.938z"/>
			<path fill="#003087" d="M49.325,39.938h-3.187c-0.138,0-0.262-0.078-0.318-0.198l-2.104-4.39h-0.032l-0.681,4.289
				c-0.026,0.172-0.174,0.299-0.348,0.299h-2.502c-0.157,0-0.276-0.14-0.251-0.293l1.789-11.339
				c0.026-0.171,0.175-0.298,0.349-0.298h4.334c2.356,0,3.974,1.123,3.576,3.671c-0.269,1.646-1.408,3.07-3.147,3.371l2.737,4.504
				C49.646,39.723,49.521,39.938,49.325,39.938z M44.001,33.355h0.301c1.013,0,2.179-0.191,2.39-1.487
				c0.213-1.298-0.463-1.484-1.547-1.488h-0.438c-0.132,0-0.244,0.097-0.266,0.228L44.001,33.355z"/>
			<path fill="#003087" d="M78.727,39.938h-2.435c-0.153,0-0.274-0.14-0.249-0.293l1.424-9.012H75.2
				c-0.154,0-0.274-0.139-0.251-0.293l0.309-1.966c0.034-0.212,0.215-0.368,0.43-0.368h7.563c0.152,0,0.273,0.14,0.248,0.293
				l-0.307,1.967c-0.033,0.213-0.219,0.367-0.433,0.367h-2.19l-1.411,8.938C79.121,39.783,78.939,39.938,78.727,39.938z"/>
			<path fill="#003087" d="M40.06,31.398c-0.034,0.221-0.306,0.301-0.463,0.14c-0.531-0.545-1.312-0.832-2.149-0.832
				c-1.897,0-3.398,1.453-3.7,3.304c-0.285,1.883,0.791,3.241,2.719,3.241c0.796,0,1.639-0.303,2.34-0.81
				c0.193-0.142,0.459,0.026,0.421,0.264l-0.442,2.73c-0.026,0.162-0.144,0.295-0.301,0.342c-0.944,0.277-1.67,0.477-2.554,0.477
				c-5.144,0-5.966-4.393-5.702-6.26c0.743-5.236,4.992-6.437,7.597-6.293c0.839,0.048,1.591,0.158,2.328,0.437
				c0.238,0.089,0.379,0.333,0.339,0.584L40.06,31.398z"/>
		</g>
		<g>
			<path fill="#009CDE" d="M55.512,16.063h-2.688c-0.185,0-0.341,0.133-0.369,0.315l-1.086,6.888
				c-0.021,0.136,0.083,0.259,0.221,0.259h1.378c0.129,0,0.238-0.093,0.26-0.221l0.31-1.952c0.028-0.182,0.185-0.315,0.366-0.315
				h0.852c1.771,0,2.792-0.856,3.061-2.553c0.121-0.744,0.006-1.327-0.344-1.735C57.086,16.299,56.408,16.063,55.512,16.063z
				 M55.818,18.578c-0.146,0.965-0.881,0.965-1.596,0.965h-0.406l0.285-1.801c0.02-0.109,0.111-0.189,0.224-0.189h0.187
				c0.483,0,0.941,0,1.178,0.276C55.83,17.995,55.872,18.239,55.818,18.578z"/>
			<path fill="#003087" d="M36.348,16.063h-2.687c-0.183,0-0.34,0.133-0.369,0.315l-1.086,6.888
				c-0.021,0.136,0.083,0.259,0.221,0.259h1.283c0.184,0,0.34-0.133,0.369-0.315l0.293-1.857c0.029-0.182,0.185-0.315,0.367-0.315
				h0.851c1.771,0,2.793-0.856,3.06-2.553c0.119-0.744,0.004-1.327-0.343-1.735C37.925,16.299,37.247,16.063,36.348,16.063z
				 M36.658,18.578c-0.146,0.965-0.884,0.965-1.597,0.965h-0.405l0.285-1.801c0.017-0.109,0.111-0.189,0.221-0.189h0.186
				c0.485,0,0.943,0,1.18,0.276C36.668,17.995,36.71,18.239,36.658,18.578z"/>
			<path fill="#003087" d="M44.378,18.547H43.09c-0.109,0-0.204,0.08-0.22,0.189l-0.058,0.359l-0.089-0.13
				c-0.279-0.404-0.9-0.539-1.521-0.539c-1.421,0-2.635,1.077-2.87,2.587c-0.123,0.754,0.051,1.474,0.479,1.976
				c0.393,0.462,0.952,0.654,1.62,0.654c1.146,0,1.78-0.735,1.78-0.735l-0.058,0.357c-0.021,0.136,0.084,0.259,0.222,0.259h1.159
				c0.184,0,0.34-0.133,0.369-0.315l0.695-4.402C44.621,18.67,44.516,18.547,44.378,18.547z M42.585,21.052
				c-0.125,0.734-0.709,1.229-1.452,1.229c-0.374,0-0.673-0.119-0.863-0.347c-0.191-0.226-0.262-0.546-0.202-0.903
				c0.115-0.729,0.71-1.238,1.442-1.238c0.363,0,0.662,0.121,0.857,0.35C42.564,20.372,42.641,20.695,42.585,21.052z"/>
			<path fill="#009CDE" d="M63.539,18.547h-1.287c-0.109,0-0.204,0.08-0.22,0.189l-0.058,0.359l-0.091-0.13
				c-0.278-0.404-0.899-0.539-1.521-0.539c-1.422,0-2.637,1.077-2.871,2.587c-0.123,0.754,0.053,1.474,0.479,1.976
				c0.393,0.462,0.952,0.654,1.619,0.654c1.146,0,1.782-0.735,1.782-0.735l-0.058,0.357c-0.023,0.136,0.084,0.259,0.22,0.259h1.159
				c0.184,0,0.341-0.133,0.369-0.315l0.694-4.402C63.783,18.67,63.678,18.547,63.539,18.547z M61.747,21.052
				c-0.126,0.734-0.71,1.229-1.453,1.229c-0.374,0-0.672-0.119-0.862-0.347c-0.19-0.226-0.263-0.546-0.201-0.903
				c0.115-0.729,0.709-1.238,1.44-1.238c0.364,0,0.662,0.121,0.858,0.35C61.727,20.372,61.802,20.695,61.747,21.052z"/>
			<path fill="#003087" d="M51.229,18.547h-1.293c-0.123,0-0.237,0.062-0.309,0.164l-1.784,2.627l-0.756-2.523
				c-0.047-0.159-0.192-0.268-0.356-0.268H45.46c-0.151,0-0.262,0.15-0.212,0.297l1.423,4.179l-1.338,1.89
				c-0.104,0.148,0.001,0.353,0.183,0.353h1.293c0.123,0,0.235-0.059,0.307-0.159l4.302-6.206
				C51.518,18.75,51.41,18.547,51.229,18.547z"/>
			<path fill="#009CDE" d="M65.055,16.251l-1.102,7.015c-0.021,0.136,0.083,0.259,0.222,0.259h1.107c0.186,0,0.34-0.133,0.368-0.315
				l1.09-6.888c0.021-0.136-0.084-0.259-0.223-0.259h-1.24C65.167,16.063,65.072,16.142,65.055,16.251z"/>
		</g>
	</g>
</g>
</svg>
