<svg xmlns="http://www.w3.org/2000/svg" width="38" height="25" viewBox="0 0 38 25">
  <metadata><?xpacket begin="﻿" id="W5M0MpCehiHzreSzNTczkc9d"?>
<x:xmpmeta xmlns:x="adobe:ns:meta/" x:xmptk="Adobe XMP Core 5.6-c138 79.159824, 2016/09/14-01:09:01        ">
   <rdf:RDF xmlns:rdf="http://www.w3.org/1999/02/22-rdf-syntax-ns#">
      <rdf:Description rdf:about=""/>
   </rdf:RDF>
</x:xmpmeta>
                                                                                                    
                                                                                                    
                                                                                                    
                                                                                                    
                                                                                                    
                                                                                                    
                                                                                                    
                                                                                                    
                                                                                                    
                                                                                                    
                                                                                                    
                                                                                                    
                                                                                                    
                                                                                                    
                                                                                                    
                                                                                                    
                                                                                                    
                                                                                                    
                                                                                                    
                                                                                                    
                           
<?xpacket end="w"?></metadata>
<defs>
    <style>
      .cls-1 {
        fill: #eead0e;
        fill-rule: evenodd;
      }
    </style>
  </defs>
  <path id="Icon_" data-name="Icon " class="cls-1" d="M16.625,0A16.664,16.664,0,0,0,0,16.664a1.157,1.157,0,0,0,.014.141C0.005,16.955,0,17.1,0,17.257A7.718,7.718,0,1,0,7.717,9.519,7.652,7.652,0,0,0,3.7,10.654a14.271,14.271,0,0,1,12.927-8.28A1.189,1.189,0,1,0,16.625,0ZM36.811,0A16.665,16.665,0,0,0,20.185,16.664a1.168,1.168,0,0,0,.014.141c-0.009.15-.014,0.3-0.014,0.452A7.721,7.721,0,1,0,27.9,9.519a7.659,7.659,0,0,0-4.013,1.13,14.263,14.263,0,0,1,12.92-8.275A1.189,1.189,0,1,0,36.811,0Z"/>
</svg>
