<?xml version="1.0" encoding="utf-8"?>
<!-- Generator: Adobe Illustrator 15.1.0, SVG Export Plug-In . SVG Version: 6.00 Build 0)  -->
<!DOCTYPE svg PUBLIC "-//W3C//DTD SVG 1.1//EN" "http://www.w3.org/Graphics/SVG/1.1/DTD/svg11.dtd">
<svg version="1.1" id="Layer_1" xmlns="http://www.w3.org/2000/svg" xmlns:xlink="http://www.w3.org/1999/xlink" x="0px" y="0px"
	 width="512px" height="512px" viewBox="0 0 512 512" enable-background="new 0 0 512 512" xml:space="preserve">
<title>Tire</title>
<path fill="#A1CE35" d="M225.266,225.267c-16.974,16.974-16.974,44.494,0.001,61.467c16.974,16.974,44.493,16.973,61.467,0
	c16.974-16.975,16.974-44.494,0-61.467C269.749,208.319,242.25,208.319,225.266,225.267z M275.42,275.42
	c-10.726,10.715-28.106,10.707-38.821-0.019c-10.716-10.726-10.707-28.106,0.018-38.821c10.719-10.708,28.085-10.708,38.804,0
	C286.125,247.313,286.125,264.687,275.42,275.42z"/>
<path fill="#A1CE35" d="M159.225,159.225c-53.362,53.362-53.362,140.188,0,193.55c53.482,53.362,140.067,53.362,193.55,0
	c53.362-53.362,53.362-140.188,0-193.55C299.413,105.863,212.588,105.862,159.225,159.225z M288.7,139.678
	c6.964,1.943,13.738,4.511,20.241,7.671l-20.508,20.508L288.7,139.678z M218.8,141.019l-0.3,29.169l-20.323-20.324
	C204.76,146.278,211.664,143.317,218.8,141.019L218.8,141.019z M148.156,201.429l18.95,18.965l-26.447-0.427
	c1.98-6.376,4.488-12.577,7.499-18.538H148.156z M139.745,288.943l28.007-0.409l-20.404,20.405
	c-3.123-6.426-5.667-13.118-7.601-19.996H139.745z M218.767,370.969c-7.702-2.48-15.134-5.734-22.181-9.711l22.214-22.213
	L218.767,370.969z M288.532,341.779l22.054,22.054c-6.915,3.493-14.152,6.31-21.609,8.411L288.532,341.779z M341.459,341.462
	c-5.132,5.137-10.715,9.802-16.683,13.938L285.9,316.521c-3.124-3.125-8.189-3.125-11.313,0c-1.529,1.528-2.374,3.611-2.342,5.773
	l0.777,53.311c-12.709,1.792-25.622,1.564-38.261-0.674l0.055-55.212c0.005-4.418-3.573-8.003-7.991-8.008
	c-2.125-0.003-4.163,0.841-5.665,2.343l-38.225,38.225c-10.647-8.082-19.882-17.873-27.33-28.973l37.4-37.4
	c3.124-3.125,3.124-8.189,0-11.314c-1.529-1.529-3.612-2.374-5.775-2.342l-50.848,0.744c-1.729-12.28-1.574-24.753,0.46-36.986
	l49.775,1h0.139c3.234-0.063,6.125-2.036,7.363-5.025c1.272-3.05,0.601-6.566-1.707-8.932L156.6,187.229
	c7.614-10.984,16.987-20.637,27.744-28.569l36.3,36.3c3.124,3.125,8.189,3.125,11.313,0.001c1.48-1.479,2.322-3.481,2.344-5.574
	l0.542-52.334c12.513-2.216,25.297-2.452,37.883-0.7l-0.481,50.925c-0.042,4.418,3.506,8.034,7.924,8.076
	c2.147,0.02,4.214-0.824,5.732-2.344l37.4-37.4c11.1,7.448,20.89,16.683,28.971,27.33l-38.223,38.225
	c-3.124,3.125-3.123,8.19,0.001,11.313c1.488,1.488,3.503,2.33,5.606,2.343l55.34,0.34c2.241,12.915,2.385,26.106,0.424,39.065
	l-55.784,0.488c-4.418,0.039-7.969,3.652-7.93,8.07c0.019,2.097,0.859,4.104,2.343,5.586l39.284,39.284
	c-3.606,4.894-7.575,9.509-11.872,13.807H341.459z M361.259,196.588c4.037,7.16,7.329,14.715,9.824,22.547l-32.175-0.2
	L361.259,196.588z M371.883,290.258c-2.404,8.179-5.671,16.078-9.746,23.565l-23.278-23.277L371.883,290.258z"/>
<path fill="#A1CE35" d="M256,36.038c-121.481,0-219.962,98.479-219.962,219.96c0,0,0,0.001,0,0.002c0,0.066,0,0.132,0,0.2
	c-0.026,0.264-0.041,0.53-0.041,0.8c0.001,0.318,0.021,0.637,0.062,0.952c0.347,56.985,22.951,111.58,62.988,152.133
	c0.685,1.193,1.674,2.184,2.867,2.868c40.554,40.036,95.147,62.639,152.134,62.984c0.315,0.04,0.634,0.061,0.952,0.063
	c0.267,0,0.534-0.014,0.8-0.041h0.2c121.481,0,219.962-98.481,219.962-219.964c0-58.337-23.175-114.285-64.426-155.536
	C370.375,59.075,314.368,35.878,256,36.038z M442,265h17.661c-2.047,48.422-21.336,94.516-54.385,129.964l-12.245-12.245
	c-3.104-3.144-8.17-3.175-11.313-0.07s-3.175,8.17-0.07,11.313c0.023,0.023,0.047,0.047,0.07,0.07l12.208,12.208
	c-35.829,32.933-82.287,51.915-130.926,53.493V443c0-4.418-3.582-8-8-8c-4.419,0-8,3.582-8,8v16.662
	c-48.177-2.037-94.06-21.143-129.444-53.9l11.727-11.727c3.104-3.144,3.073-8.209-0.07-11.313
	c-3.116-3.078-8.128-3.078-11.244,0.001l-11.727,11.726C73.481,359.063,54.375,313.179,52.338,265H69c4.418,0,8-3.582,8-8
	c0-4.418-3.582-8-8-8H52.267c1.578-48.64,20.561-95.098,53.494-130.926l12.207,12.207c3.105,3.143,8.17,3.174,11.313,0.069
	s3.174-8.17,0.069-11.313c-0.022-0.023-0.046-0.046-0.068-0.069l-12.246-12.246C152.485,73.674,198.579,54.386,247,52.339V70
	c0,4.418,3.581,8,8,8c4.418,0,8-3.582,8-8V52.267c48.882,1.586,95.552,20.75,131.443,53.974l-12.726,12.727
	c-3.144,3.105-3.174,8.17-0.069,11.313c3.105,3.144,8.171,3.174,11.313,0.069c0.023-0.023,0.047-0.046,0.069-0.069l12.728-12.726
	c33.224,35.892,52.388,82.562,53.974,131.445H442c-4.419,0-8,3.582-8,8C434,261.418,437.581,265,442,265z"/>
</svg>
