<svg xmlns="http://www.w3.org/2000/svg" width="20" height="14" viewBox="0 0 20 14">
  <metadata><?xpacket begin="﻿" id="W5M0MpCehiHzreSzNTczkc9d"?>
<x:xmpmeta xmlns:x="adobe:ns:meta/" x:xmptk="Adobe XMP Core 5.6-c138 79.159824, 2016/09/14-01:09:01        ">
   <rdf:RDF xmlns:rdf="http://www.w3.org/1999/02/22-rdf-syntax-ns#">
      <rdf:Description rdf:about=""/>
   </rdf:RDF>
</x:xmpmeta>
                                                                                                    
                                                                                                    
                                                                                                    
                                                                                                    
                                                                                                    
                                                                                                    
                                                                                                    
                                                                                                    
                                                                                                    
                                                                                                    
                                                                                                    
                                                                                                    
                                                                                                    
                                                                                                    
                                                                                                    
                                                                                                    
                                                                                                    
                                                                                                    
                                                                                                    
                                                                                                    
                           
<?xpacket end="w"?></metadata>
<defs>
    <style>
      .cls-1 {
        fill: #fff;
        fill-opacity: 0.6;
        fill-rule: evenodd;
      }
    </style>
  </defs>
  <path class="cls-1" d="M9.97,0H18.1a2.079,2.079,0,0,1,.843.153c0.133,0.06.147,0.117,0.041,0.219Q17.473,1.838,15.967,3.31c-0.689.674-1.37,1.358-2.058,2.034q-1.4,1.376-2.8,2.746a1.421,1.421,0,0,1-2.168,0Q5.01,4.268,1.085.44c-0.207-.2-0.2-0.232.083-0.333A1.92,1.92,0,0,1,1.819,0Q5.895,0,9.97,0Zm0,13.995q-4.065,0-8.131,0a1.876,1.876,0,0,1-.8-0.159C0.928,13.786.9,13.736,1,13.632c0.178-.206.385-0.38,0.578-0.569l5.314-5.2c0.215-.211.217-0.211,0.429,0,0.341,0.331.678,0.666,1.022,0.994a2.411,2.411,0,0,0,3.356,0c0.329-.313.649-0.635,0.973-0.951,0.224-.219.225-0.219,0.445-0.006l3.99,3.889c0.618,0.6,1.233,1.207,1.856,1.8,0.142,0.136.12,0.2-.054,0.27a2.136,2.136,0,0,1-.781.135Q14.047,13.993,9.97,13.995ZM20,6.986q0,2.565,0,5.13a2.4,2.4,0,0,1-.13.764c-0.044.131-.114,0.163-0.218,0.05-0.03-.032-0.063-0.061-0.094-0.091L13.793,7.22c-0.213-.207-0.213-0.207,0-0.417l5.715-5.6c0.047-.046.1-0.09,0.141-0.138,0.107-.115.174-0.077,0.218,0.05A2.331,2.331,0,0,1,20,1.878Q20,4.432,20,6.986ZM0,7q0-2.62,0-5.24a1.689,1.689,0,0,1,.11-0.612C0.169,0.99.238,0.933,0.367,1.081c0.024,0.027.052,0.05,0.078,0.076L6.194,6.763c0.221,0.215.22,0.215,0,.433L1.287,12c-0.308.3-.617,0.6-0.921,0.908-0.112.112-.182,0.123-0.252-0.04A1.521,1.521,0,0,1,0,12.258Q0,9.629,0,7Z"/>
</svg>
