<?xml version="1.0" encoding="utf-8"?>
<!-- Generator: Adobe Illustrator 19.0.0, SVG Export Plug-In . SVG Version: 6.00 Build 0)  -->
<svg version="1.1" id="Layer_1" xmlns="http://www.w3.org/2000/svg" xmlns:xlink="http://www.w3.org/1999/xlink" x="0px" y="0px"
	 viewBox="-239 312.5 1440 167.5" style="enable-background:new -239 312.5 1440 167.5;" xml:space="preserve">
<style type="text/css">
	.st0{fill:none;stroke:#1F45FC;stroke-dasharray:6,8;}
	.st1{fill:#EEAD0E;}
	.st2{fill:#EEAD0E;fill-opacity:0;stroke:#1F45FC;stroke-width:2;}
	.st3{fill:#1F45FC;}
</style>
<path class="st0" d="M-208,476c0,0,127-66.5,285-66.5s246.5-16.5,307-54s221.5-55.5,375,6s234,41,313,20.5s97-40,97-40"/>
<path class="st1" d="M-221,448.7c-3.5,0-6.3,2.8-6.3,6.3s2.8,6.3,6.3,6.3c3.5,0,6.3-2.8,6.3-6.3c0,0,0,0,0,0
	C-214.7,451.6-217.5,448.8-221,448.7z"/>
<circle class="st2" cx="1182" cy="330" r="16"/>
<circle id="Ellipse_2_copy" class="st1" cx="1182" cy="330" r="6"/>
<path class="st3" d="M-220.2,438.3c-8.8,0-16,7.2-16,16c0,6.3,2.6,12.7,7.6,18.4c3.7,4.3,7.4,6.7,7.6,6.8c0.2,0.2,0.5,0.2,0.8,0.2
	c0.3,0,0.5-0.1,0.8-0.2c0.2-0.1,3.9-2.5,7.6-6.8c5-5.8,7.6-12.1,7.6-18.4C-204.2,445.5-211.4,438.3-220.2,438.3z M-220.2,476.6
	c-2.9-2.2-13.1-10.6-13.1-22.3c0-7.2,5.9-13.1,13.1-13.1c7.2,0,13.1,5.9,13.1,13.1C-207.1,466-217.2,474.4-220.2,476.6z"/>
</svg>
