<svg xmlns="http://www.w3.org/2000/svg" width="20" height="10" viewBox="0 0 20 10">
  <metadata><?xpacket begin="﻿" id="W5M0MpCehiHzreSzNTczkc9d"?>
<x:xmpmeta xmlns:x="adobe:ns:meta/" x:xmptk="Adobe XMP Core 5.6-c138 79.159824, 2016/09/14-01:09:01        ">
   <rdf:RDF xmlns:rdf="http://www.w3.org/1999/02/22-rdf-syntax-ns#">
      <rdf:Description rdf:about=""/>
   </rdf:RDF>
</x:xmpmeta>
                                                                                                    
                                                                                                    
                                                                                                    
                                                                                                    
                                                                                                    
                                                                                                    
                                                                                                    
                                                                                                    
                                                                                                    
                                                                                                    
                                                                                                    
                                                                                                    
                                                                                                    
                                                                                                    
                                                                                                    
                                                                                                    
                                                                                                    
                                                                                                    
                                                                                                    
                                                                                                    
                           
<?xpacket end="w"?></metadata>
<defs>
    <style>
      .cls-1 {
        fill: #fff;
        fill-rule: evenodd;
        opacity: 0.6;
      }
    </style>
  </defs>
  <path id="Shape_23_copy_8" data-name="Shape 23 copy 8" class="cls-1" d="M15.209,3.893c-0.847-.68-1.636-1.305-2.413-1.94A0.98,0.98,0,0,1,12.9.219a1.631,1.631,0,0,1,1.617,0,2.7,2.7,0,0,1,.34.236q2.274,1.813,4.544,3.629a1.02,1.02,0,0,1,0,1.835q-2.294,1.833-4.593,3.668a1.614,1.614,0,0,1-2.3-.15,0.946,0.946,0,0,1,.264-1.369c0.45-.372.916-0.732,1.376-1.1l1.082-.858H14.758c-5.163,0,.26,0-4.9,0A1.378,1.378,0,0,1,8.378,5.27,1.152,1.152,0,0,1,9.615,3.9c0.127-.007.255,0,0.382,0h5.213Zm-9.659,0A1.268,1.268,0,0,1,6.933,5a1.288,1.288,0,0,1-1.4,1.107A1.284,1.284,0,0,1,4.154,4.995,1.27,1.27,0,0,1,5.55,3.893Zm-4.15,0A1.262,1.262,0,0,1,2.765,5.021,1.3,1.3,0,0,1,1.349,6.112,1.276,1.276,0,0,1-.015,4.979,1.279,1.279,0,0,1,1.4,3.893Z"/>
</svg>
