<svg xmlns="http://www.w3.org/2000/svg" width="16" height="16" viewBox="0 0 16 16">
  <metadata><?xpacket begin="﻿" id="W5M0MpCehiHzreSzNTczkc9d"?>
<x:xmpmeta xmlns:x="adobe:ns:meta/" x:xmptk="Adobe XMP Core 5.6-c138 79.159824, 2016/09/14-01:09:01        ">
   <rdf:RDF xmlns:rdf="http://www.w3.org/1999/02/22-rdf-syntax-ns#">
      <rdf:Description rdf:about=""/>
   </rdf:RDF>
</x:xmpmeta>
                                                                                                    
                                                                                                    
                                                                                                    
                                                                                                    
                                                                                                    
                                                                                                    
                                                                                                    
                                                                                                    
                                                                                                    
                                                                                                    
                                                                                                    
                                                                                                    
                                                                                                    
                                                                                                    
                                                                                                    
                                                                                                    
                                                                                                    
                                                                                                    
                                                                                                    
                                                                                                    
                           
<?xpacket end="w"?></metadata>
<defs>
    <style>
      .cls-1 {
        fill: #fff;
        fill-opacity: 0.6;
        fill-rule: evenodd;
      }
    </style>
  </defs>
  <path class="cls-1" d="M0,15.245c0.051-.254.1-0.512,0.154-0.765a8.589,8.589,0,0,1,.874-2.3,8.348,8.348,0,0,1,1.332-1.792,8.048,8.048,0,0,1,1.806-1.4A0.142,0.142,0,0,1,4.357,9C4.682,9.267,5,9.543,5.343,9.779a4.329,4.329,0,0,0,1.175.537,4.536,4.536,0,0,0,1.395.221A6.68,6.68,0,0,0,9.1,10.416a4.446,4.446,0,0,0,1.259-.459A4.981,4.981,0,0,0,11.6,9.051a0.194,0.194,0,0,1,.284-0.044,9.126,9.126,0,0,1,1.3.938A8.223,8.223,0,0,1,14.563,11.5,8.508,8.508,0,0,1,15.6,13.573a9.035,9.035,0,0,1,.37,1.534,1.19,1.19,0,0,0,.037.138v0.267a0.709,0.709,0,0,1-.739.487q-7.256,0-14.512,0A0.716,0.716,0,0,1,0,15.513V15.245Zm8-5.7A4.686,4.686,0,0,1,3.425,4.779,4.671,4.671,0,0,1,8,0a4.671,4.671,0,0,1,4.578,4.78A4.689,4.689,0,0,1,8,9.547Z"/>
</svg>
