<svg xmlns="http://www.w3.org/2000/svg" xmlns:xlink="http://www.w3.org/1999/xlink" version="1.1" x="0px" y="0px" viewBox="0 0 100 125" enable-background="new 0 0 100 100" xml:space="preserve"><g><path d="M2.413,62.101l7.347,0.974c0,0-0.088-9.649,8.764-9.649c8.852,0,9.25,10.312,9.25,10.312h47.049   c0,0-0.531-10.49,8.587-10.49c9.117,0,9.117,9.915,9.117,9.915s6.816,0.531,7.082-2.301c0.266-2.833,0.885-4.869-0.354-7.791   c-1.24-2.921,0.442-6.904-21.333-9.382c0,0-17.35-10.092-19.209-10.446c-1.859-0.354-26.379-4.78-34.7,0s-11.95,7.259-13.809,7.524   c-1.859,0.266-8.144,0.177-8.587,1.328c-0.443,1.151-0.797,9.56-0.797,9.56S-1.836,57.764,2.413,62.101z M58.446,35.545   l1.652-1.594c0,0,11.169,6.256,15.964,9.074c1.409,0.828,0.224,1.653-0.088,1.903C74.646,45.991,58.446,35.545,58.446,35.545z    M46.762,34.925c12.128,0,18.766,7.081,18.766,7.081c1.151,1.24,1.239,4.515,1.239,4.515s-15.845-0.619-17.88-0.709   C46.85,45.725,46.762,34.925,46.762,34.925z M26.136,39.617c0-1.948,3.099-2.656,6.285-4.338   c3.187-1.682,10.534-0.442,10.534-0.442l1.593,11.065l-18.058-0.709C26.491,45.194,26.136,41.565,26.136,39.617z M11.885,40.768   c0,0,8.984-5.71,11.95-6.462c0.298-0.076,0.088,1.151,0.088,1.151s-11.065,7.702-11.95,7.081   C11.088,41.918,11.885,40.768,11.885,40.768z"/><circle cx="83.498" cy="62.101" r="6.861"/><circle cx="18.406" cy="62.101" r="6.861"/></g></svg>