<svg id="suv-car" xmlns="http://www.w3.org/2000/svg" viewBox="0 0 122.893 61.11">
  <path id="Path_154" data-name="Path 154" d="M57.669,0H24.5c-.38,0-.52.34-.68.68l-2.66,5.53c-.16.34.31.68.68.68h45.12c2.95.01-2.09-6.89-9.29-6.89Zm41.39,45.74v3.74h-3.74a5.128,5.128,0,0,1,3.74-3.74Zm-3.74,6.19h3.74v3.74a5.112,5.112,0,0,1-3.74-3.74Zm6.18,3.74V51.93h3.74a5.112,5.112,0,0,1-3.74,3.74Zm3.75-6.18h-3.74V45.75a5.144,5.144,0,0,1,3.74,3.74ZM32.839,45.74v3.74H29.1a5.128,5.128,0,0,1,3.74-3.74ZM29.1,51.93h3.74v3.74a5.112,5.112,0,0,1-3.74-3.74Zm6.18,3.74V51.93h3.74a5.081,5.081,0,0,1-3.74,3.74Zm3.75-6.18h-3.74V45.75a5.112,5.112,0,0,1,3.74,3.74Zm-5.8-36.72h-3.52c-5.08.23-7.17.05-9.19,1.59-2.5,1.91-3.48,10.35-4.52,14.25-.07.26.23.5.5.5h15.51a.522.522,0,0,0,.5-.5l1.22-15.35a.493.493,0,0,0-.5-.49Zm23.57.09H68.3c5.25,0,13.89,8.63,16.15,15.61.11.34-.29.65-.65.65H58.619a.683.683,0,0,1-.65-.65l-1.83-14.96a.645.645,0,0,1,.66-.65Zm-4.98-.06H37.749a.522.522,0,0,0-.5.5l-1.07,15.32a.5.5,0,0,0,.5.5h16.97a.489.489,0,0,0,.5-.5L52.319,13.3a.515.515,0,0,0-.5-.5Zm48.46,27.51a10.4,10.4,0,1,0,10.4,10.4,10.4,10.4,0,0,0-10.4-10.4Zm20.8.47a4.009,4.009,0,0,0-1.74-.34,24.183,24.183,0,0,0-.95-8.17,5.024,5.024,0,0,0-1.47-2.64c-2.14-1.91-21.25-3.59-25.28-4.11a137.556,137.556,0,0,0-16.33-13.46c-1.63-1.38-3.96-2.06-6.9-2.13L22,9.89a8.243,8.243,0,0,0-7.93,4.85L10.2,25.89l-.88-.24V21.31c.16-1.45-.41-2.17-1.52-2.35H2.6c-1.43.06-2.44.78-2.6,2.85V37.23c-.01,1.59.57,2.63,2.04,2.85h4.83c.48.11.33.48.37.99v5.26c.35,3.88,1.41,6.88,4.52,7.27h9.41c-.2-4.56.66-8.29,2.75-11.08,7.59-10.14,24.06-4.1,22.95,11.11h40.44c-.34-4.86.58-8.55,2.59-11.2,7.57-9.99,25.18-4.6,23.1,11.51h6.25c3.77,0,5-11.75,1.83-13.16Zm-87.021-.47a10.4,10.4,0,1,0,10.4,10.4,10.4,10.4,0,0,0-10.4-10.4Z" transform="translate(0.002)" fill-rule="evenodd"/>
</svg>
